<svg width="390" height="4" viewBox="0 0 390 4" fill="none" xmlns="http://www.w3.org/2000/svg">
<path d="M386.285 3.97966C384.1 4.03177 381.235 3.97605 379.058 3.89958C378.375 3.87586 378.721 3.76985 378.25 3.7487C377.329 3.70748 376.471 3.75948 375.56 3.71037C375.258 3.69358 375.634 3.52565 375.318 3.51189C373.584 3.43767 371.944 3.48045 370.188 3.44475C361.538 3.26863 353.035 3.20559 344.279 3.12907C341.392 3.10399 337.882 2.95158 334.9 3.01823C334.552 3.02616 334.76 3.17356 334.694 3.18571C333.655 3.3717 334 3.07413 333.322 3.03459C330.63 2.87849 327.636 2.86491 325.046 2.9218C323.943 2.94643 325.049 3.2392 323.939 3.07487C323.862 3.06377 324.141 2.90724 323.839 2.89055C323.154 2.853 321.853 2.88098 321.322 2.86857C320.298 2.84388 320.129 2.84546 319.16 2.84367C317.836 2.83987 316.262 2.76206 314.841 2.79753C314.538 2.80556 314.939 2.96602 314.456 2.99333C313.972 3.02059 312.692 3.00698 312.26 2.96916C311.828 2.93131 312.012 2.8052 311.936 2.77629C311.307 2.53229 309.826 2.87023 309.636 2.87858C306.161 3.02098 303.182 2.82847 299.921 2.82902C297.445 2.82985 294.798 2.8934 292.442 2.88468C289.635 2.87368 287.257 2.78673 284.53 2.80168C284.242 2.80307 284.58 2.99173 284.228 2.99381C280.494 3.01577 276.786 2.9952 273.069 2.86784C272.696 2.8549 273.176 2.68925 272.804 2.66642C270.523 2.53029 266.915 2.20327 265.56 2.92448C264.015 2.89632 262.14 2.86722 260.758 2.72184C259.866 2.62827 260.732 2.44782 259.637 2.52482C259.39 2.54198 259.711 2.70001 259.341 2.71378C257.782 2.77164 256.079 2.72027 254.537 2.80192C254.224 2.8189 254.309 2.9605 254.22 2.986C253.474 3.19251 252.23 2.85114 251.959 2.82633C249.895 2.64136 248.388 2.71415 246.465 2.70963C246.019 2.7085 246.546 2.89871 246.117 2.90446C243.89 2.93172 241.583 2.91537 239.403 2.83097C238.918 2.81174 239.364 2.64972 239.132 2.63224C238.11 2.55714 237.883 2.86315 236.903 2.79703C236.697 2.78349 236.813 2.64479 236.775 2.62955C236.185 2.39043 235.673 2.72925 235.521 2.73673C233.602 2.83894 232.375 2.48523 230.521 2.53532C230.299 2.54166 230.799 2.71716 230.176 2.72428C226.022 2.77273 221.628 2.72452 217.517 2.58414C216.877 2.56255 217.334 2.43072 217.293 2.41446C216.638 2.16053 216.213 2.50077 216.005 2.51359C214.361 2.60582 212.824 2.32049 211.707 2.72574C204.742 2.58511 197.81 2.81268 190.902 2.44962C190.815 2.44541 190.972 2.27784 190.797 2.27018C188.687 2.17609 189.092 2.43652 187.696 2.75504C187.345 2.83502 186.275 2.45046 186.18 2.42227C185.836 2.3184 186.193 2.0691 186.078 2.04898C185.122 1.89102 185.278 2.71546 183.989 2.71573C183.949 2.71436 184.118 2.56261 184.01 2.54752C183.674 2.50015 183.34 2.56045 183.012 2.50821C182.259 2.38734 181.991 1.98673 180.841 2.21988C180.695 2.25014 180.918 2.7178 179.767 2.69571C179.308 2.68651 177.277 2.69452 176.708 2.66422C176.14 2.63395 176.53 2.48324 176.489 2.47672C174.958 2.27744 175.538 2.19485 174.771 1.89981C174.004 1.60589 174.216 2.30692 173.904 2.38516C173.59 2.46319 172.467 2.29877 172.191 2.24161C171.915 2.18443 172.259 2.08867 172.014 2.05631C170.388 1.84489 171.3 2.40427 170.764 2.51553C169.501 2.77899 168.517 2.2591 167.361 2.20816C167.048 2.19441 167.303 2.31281 167.024 2.32388C165.921 2.36617 165.257 2.20395 164.001 2.35269C163.796 2.37693 162.781 2.6895 162.124 2.46011C162.031 2.42704 162.295 2.29748 161.825 2.26846C161.122 2.22491 159.856 2.1966 159.101 2.2399C158.543 2.27194 159.182 2.48541 158.48 2.4191C158.168 2.38949 158.746 2.2646 158.16 2.21939C157.577 2.17419 156.087 2.17968 155.52 2.18399C154.954 2.1884 155.263 2.35033 155.218 2.36124C154.941 2.42373 153.854 2.50181 153.758 2.50162C148.915 2.52138 144.449 2.24843 139.733 2.33877C139.363 2.34563 139.61 2.51639 139.553 2.51919C138.286 2.59074 139.285 2.13673 138.4 1.98477C138.528 2.33129 138.006 2.26855 137.113 2.30655C136.683 2.32514 136.918 2.45932 136.878 2.47305C136.241 2.67685 135.797 2.41362 135.682 2.35977C135.26 2.16169 134.8 2.39574 134.513 2.26333C134.226 2.13192 134.887 1.93711 134.031 1.93961C133.791 2.06365 134.426 2.3878 133.776 2.44034C131.325 2.63906 126.748 2.38472 124.777 2.3583C122.81 2.33191 122.174 2.35479 121.028 2.30996C118.957 2.22891 119.716 2.46941 118.43 2.57949C117.141 2.68957 117.768 2.09782 117.582 1.97061C117.4 1.84346 117.202 1.97435 116.975 1.90445C116.75 1.83456 117.238 1.74807 116.708 1.72183C116.177 1.69562 114.725 1.92183 114.537 2.05484C114.139 2.33663 114.793 2.63239 113.389 2.52847C113.308 2.5223 113.57 2.3667 113.261 2.35098C110.803 2.23119 108.251 2.22377 105.797 2.11783C105.459 2.10301 105.761 1.92992 105.565 1.91934C103.519 1.80862 104.25 2.10049 103.129 2.42471C103.381 1.99324 102.761 1.72926 101.208 1.72671C100.275 1.72503 100.436 1.91347 99.8323 2.04629C99.6512 2.08633 98.9908 1.95694 98.8712 2.04556C98.4766 2.33526 99.0986 2.65955 97.498 2.53042C97.4278 2.52428 97.6514 2.36571 97.4088 2.3561C95.8403 2.29324 95.6525 2.59626 93.9572 2.63296C92.6283 2.66175 90.2648 2.47698 88.7516 2.44692C88.7834 1.96182 87.3542 2.07291 86.7744 2.40737C85.7924 2.39368 84.7317 2.41259 83.7826 2.36636C83.4559 2.3506 83.6705 2.21015 83.6293 2.19497C82.9977 1.95691 82.5707 2.28231 82.3588 2.29507C80.0615 2.41908 78.1898 2.17245 75.9973 2.41348C75.9195 2.42216 75.7934 2.75912 75.2073 2.51308C75.1693 2.49613 75.8935 2.34281 74.8621 2.33096C73.8305 2.31907 71.886 2.13844 70.454 2.29458C70.1074 2.33217 69.2309 2.60572 68.5273 2.39199C68.4336 2.36297 68.5362 2.26633 68.4009 2.21255C67.9635 2.04119 67.7248 2.38178 67.2107 2.09243C66.6967 1.8031 65.6273 1.58641 64.1832 1.78604C64.1371 1.79184 63.7953 2.06179 63.3411 2.05752C62.6161 2.05047 61.5868 1.99424 60.8298 1.996C60.4673 1.99693 60.6993 2.16456 60.6364 2.16763C58.1993 2.26156 56.4646 2.11212 53.8538 2.04726C53.3752 2.03504 51.9998 2.26362 51.0732 2.08291C50.0558 1.88508 51.1013 1.06214 48.7628 1.2582C47.8195 1.33662 46.6255 2.38066 44.9304 1.83974C41.643 1.97378 38.6028 1.69694 35.3062 1.88833C35.158 1.89681 34.6892 2.18819 34.3407 2.18422C33.8233 2.17777 33.5393 2.04159 33.1698 2.03261C31.6219 1.99159 30.2051 2.10811 28.7126 2.08999C28.146 2.0834 28.3441 1.94258 27.6682 1.93471C26.9927 1.92697 26.5424 2.1124 25.627 2.02285C24.9357 1.95458 24.2446 1.57557 23.327 1.53139C23.292 1.90525 22.6618 1.89755 21.5417 1.99624C21.3264 2.01538 21.5573 2.14551 21.4554 2.16127C21.0409 2.22834 20.6573 2.1205 20.2637 2.1935C20.168 2.21103 20.1635 2.33871 20.0852 2.36025C19.4196 2.54827 18.3232 2.26108 18.1348 2.21108C17.413 2.02118 17.0757 2.18723 16.5221 2.11245C15.9694 2.03767 16.7958 1.9442 16.1501 1.89882C14.8118 1.80497 13.0923 1.82559 11.7331 1.81972C11.1907 1.81817 11.5608 1.98859 11.4831 1.99233C10.3617 2.03555 9.22766 1.85427 8.60583 2.19374C7.82834 1.31599 7.9296 2.27888 6.32663 2.10317C6.20035 2.08896 6.03976 1.67387 6.52451 1.61294C7.00925 1.55205 7.74435 1.6818 8.4169 1.58681C8.57623 1.56452 9.48856 1.17556 9.61304 1.152C10.5882 0.967859 10.7263 1.58814 10.778 1.62221C11.3629 1.98988 12.4779 1.57085 12.7715 1.54189C14.1147 1.40922 15.2558 1.49645 16.3793 1.40176C17.114 1.34055 17.1859 0.934241 17.7628 0.946679C19.6808 0.987785 20.3503 1.55459 22.1576 1.06313C22.5452 0.958316 22.1601 0.514231 23.5486 0.863427C23.636 0.885441 24.6668 1.20489 25.2625 1.00283C25.3373 0.977354 25.335 0.847933 25.4336 0.83706C26.0948 0.766734 26.5358 0.86984 27.2561 0.820459C27.9763 0.771078 28.8424 0.697461 29.6647 0.741358C30.1604 0.767607 30.7962 1.00874 31.0334 1.06777C31.7033 1.23784 32.4216 0.959004 32.8366 1.16494C33.2551 1.37191 32.4369 1.68624 33.5343 1.81997C33.5749 1.48372 33.6684 1.1386 33.7337 0.80044C36.1387 0.812279 38.5049 0.921008 40.918 0.906153C41.2171 0.903975 40.9112 0.723207 41.2319 0.716213C42.585 0.687495 43.7667 0.816358 45.1699 0.765041C46.256 0.724627 47.4471 0.533232 48.5828 0.485013C49.2765 0.869775 50.9619 0.739157 52.1861 0.774319C52.615 0.786468 52.5862 0.889231 52.8913 0.922756C54.0419 1.04675 53.5027 0.706734 53.8181 0.653225C55.1715 0.424859 55.2873 1.19446 56.8828 1.17544C56.9674 1.17469 58.0006 0.764465 58.143 0.738919C59.0471 0.572337 58.2927 0.881704 58.8586 0.912014C59.8918 0.967405 60.6098 1.06537 61.8221 0.945218C62.1756 0.909628 63.0236 0.653936 63.7101 0.851712C63.8004 0.87761 63.7505 1.0132 63.8231 1.02115C65.1388 1.15351 65.1735 0.727454 65.9253 0.583158C66.6774 0.438894 67.8387 0.733009 68.0751 0.817777C68.6934 1.03707 67.6013 0.911493 67.5677 0.933011C67.1744 1.1891 68.0215 1.14501 68.6687 1.16665C68.7624 1.58441 69.6676 1.55933 69.3397 1.1874C69.3024 1.14678 68.7987 1.18574 68.6687 1.16665C69.2369 0.756778 70.2316 0.704285 71.3302 1.08731C71.8445 1.26682 71.3583 1.47613 72.9206 1.39956C73.6297 1.365 73.3557 1.07735 73.9814 0.998929C75.4109 0.820001 77.2684 1.08833 78.7421 1.04605C79.277 1.0307 78.756 0.873244 79.1215 0.857329C80.0915 0.814599 80.9472 0.932741 81.9214 0.872221C82.0097 0.866538 81.794 0.701715 82.097 0.699615C84.3938 0.680473 86.3937 0.786044 88.7918 0.78897C89.9505 0.790309 92.022 0.699405 93.2223 0.717682C95.3026 0.748385 97.8617 0.988064 99.6389 0.92984C100.798 0.89257 100.544 0.727712 101.04 0.615388C101.999 0.397658 103.695 0.787663 103.924 0.848053C103.931 0.850052 102.933 0.888916 103.465 0.973541C103.775 1.14987 103.912 0.848818 103.924 0.848053C104.074 0.887066 106.066 0.92449 106.462 0.892975C106.677 0.875754 106.556 0.71956 106.668 0.713533C109.333 0.573755 112.002 0.534057 114.704 0.607088C114.751 0.610244 114.68 0.784956 114.791 0.790193C116.356 0.867875 117.357 0.654148 118.648 0.527255C119.938 0.400419 120.961 0.4429 121.724 0.742831C122.698 0.705067 124.094 0.837666 124.898 0.918123C125.701 0.99858 125.813 0.65849 125.884 0.651767C128.089 0.436576 129.364 0.631238 131.652 0.661533C132.74 0.676519 134.897 0.62719 136.075 0.59C137.006 0.560041 137.566 0.639742 138.424 0.58878C138.54 0.581974 138.423 0.430548 138.458 0.424718C139.416 0.243547 138.955 0.61373 139.153 0.679844C139.87 0.920269 140.312 1.04832 141.538 0.935215C141.821 0.909313 142.644 0.3763 143.16 0.345129C143.83 0.305579 143.577 0.496632 144.278 0.450353C144.338 0.446568 144.326 0.328701 144.759 0.333899C146.769 0.356472 148.96 0.425057 151.049 0.413245C151.334 0.412083 150.969 0.22513 151.381 0.220374C153.315 0.198213 155.435 0.205132 157.32 0.29264C157.784 0.314767 157.493 0.445667 157.594 0.484534C158.212 0.719704 159.088 0.378008 159.233 0.371497C162.683 0.207295 165.324 0.516526 168.841 0.369301C169.032 0.360658 170.506 -0.00564682 171.163 0.30851C171.208 0.329411 171.859 0.650826 172.434 0.431069C172.469 0.417321 172.064 0.251851 172.771 0.268716C173.479 0.285544 174.617 0.175044 175.589 0.35685C175.897 0.414122 176.624 0.734744 177.543 0.479165C177.602 0.461323 179.02 -0.116579 179.526 0.282144C179.608 0.347778 179.522 0.769718 180.618 0.553383C180.827 0.511443 180.447 0.417328 180.999 0.35856C181.844 0.267985 182.963 0.380995 184.002 0.193033C184.184 0.159758 184.955 -0.12663 185.573 0.0907388C185.67 0.124783 185.486 0.265648 185.813 0.281412C187.367 0.357031 188.993 0.262806 190.571 0.36027C191.129 0.394516 190.844 0.622241 191.426 0.683267C192.009 0.744272 193.182 0.802956 193.792 0.698892C194.401 0.594782 193.735 0.231843 194.649 0.2028C198.619 0.076665 202.552 0.289576 206.516 0.32072C207.104 0.325372 206.617 0.195501 207.483 0.193035C210.678 0.183374 216.194 0.0616064 218.966 0.337567C221.187 0.558596 218.392 0.726869 220.089 0.816814C220.908 0.85972 221.794 0.437765 221.992 0.424481C223.923 0.289541 225.265 0.476458 227.004 0.419111C227.363 0.40721 227.011 0.236188 227.316 0.227949C228.36 0.19829 229.457 0.274627 230.454 0.260664C230.901 0.254007 230.819 0.123386 231.231 0.133467C232.216 0.156085 233.087 0.210992 234.047 0.333418C234.134 0.344574 233.544 0.507061 234.273 0.513105C235.452 0.522424 236.916 0.643197 238.273 0.518476C238.676 0.480958 238.692 0.182427 239.557 0.388594C239.739 0.431654 239.507 0.790125 240.515 0.480391C240.685 0.42892 242.379 0.0111459 243.21 0.28044C243.429 0.351316 243.989 0.644654 244.473 0.598555C244.538 0.591199 244.275 0.430847 244.677 0.415206C246.091 0.362873 247.573 0.379981 249.025 0.329757C249.413 0.316028 248.835 0.150096 249.414 0.134934C251.004 0.092993 252.989 0.135243 254.543 0.18718C255.117 0.206644 254.72 0.344097 254.762 0.359055C255.433 0.602354 255.829 0.273956 256.052 0.254807C257.436 0.140146 258.491 0.294409 259.767 0.253587C260.119 0.242737 259.869 0.086153 259.939 0.0721907C260.666 -0.0642303 260.125 0.216974 260.585 0.247971C261.874 0.335741 263.312 0.323156 264.615 0.303147C265.094 0.295568 264.556 0.114005 264.986 0.1093C267.529 0.0780143 270.174 0.095388 272.657 0.195482C273.124 0.214659 272.83 0.354467 272.927 0.3864C273.599 0.60981 274.583 0.305077 274.809 0.276049C275.839 0.143507 276.239 0.267143 277.148 0.244067C281.59 0.129171 287.074 0.211057 291.267 0.261646C296.73 0.326754 300.97 0.459758 306.18 0.425221C306.511 0.423201 306.177 0.237212 306.462 0.233083C310.148 0.188247 313.776 0.260924 317.469 0.207205C317.772 0.203126 317.335 0.0268076 317.821 0.0143347C318.819 -0.0124855 320.083 -0.00290218 321.091 0.0533972C321.583 0.0805236 320.923 0.231821 321.419 0.256033C322.572 0.312758 323.808 0.325315 324.992 0.297049C325.496 0.284636 324.736 0.104307 325.391 0.102226C329.853 0.0843359 334.236 0.0532789 338.746 0.286796C339.055 0.302834 339.327 0.669335 339.984 0.599052C340.033 0.497338 340.031 0.377691 340.052 0.268974C346.549 0.210411 352.979 0.337466 359.494 0.357111C359.769 0.357897 359.294 0.163707 359.826 0.16424C362.904 0.167111 365.893 0.113315 369.041 0.30633C369.353 0.325207 369.193 0.666835 370.114 0.615167C370.276 0.605739 371.662 0.560178 372.021 0.486018C372.07 0.474831 371.817 0.315373 372.263 0.310725C374.86 0.286511 377.58 0.322915 380.172 0.420345C380.59 0.436374 380.145 0.606184 380.443 0.619074C382.556 0.709217 384.855 0.580131 386.874 0.734309C388.226 0.838122 387.726 1.13165 388.444 1.42059C388.546 1.46135 389.383 1.46781 389.426 1.63592C389.537 2.05864 389.132 2.52152 389.298 2.9721C389.333 3.06915 390.454 2.96462 389.79 3.19915C389.744 3.21484 388.931 3.29268 388.731 3.37224C388.592 3.42725 388.843 3.59821 388.558 3.66863C388.274 3.73897 387.962 3.59566 387.49 3.67839C387.019 3.76215 387.226 3.95664 386.285 3.97966ZM128.516 1.27774C129.26 1.44107 129.37 0.842877 128.565 0.985995C128.526 0.993622 128.477 1.26973 128.516 1.27774ZM38.4915 1.37222C39.4641 1.63606 40.1299 1.2481 39.4436 1.04434C38.7575 0.840787 38.1951 1.29224 38.4915 1.37222ZM28.4046 1.56484C29.5414 1.77287 29.7205 0.924614 28.5028 1.09609C28.432 1.10578 28.3382 1.55276 28.4046 1.56484ZM385.113 1.50286C385.123 1.51081 385.725 1.51855 385.739 1.51067C386.06 1.32069 384.856 1.30534 385.113 1.50286ZM18.3951 1.77456C18.7501 1.8893 19.7719 1.75684 19.3309 1.61416C18.976 1.49937 17.9531 1.63182 18.3951 1.77456ZM167.329 1.91617C167.341 1.92508 167.772 1.93311 167.764 1.88272C167.734 1.72044 167.134 1.76624 167.329 1.91617ZM1.3829 1.78432C3.89636 1.81625 5.42032 2.51695 2.68317 2.43788C2.1875 2.42358 3.7515 2.21444 3.12057 2.15126C1.96616 2.03617 1.19968 2.47613 0.0216064 2.24037C-0.191589 2.19722 1.2395 1.78094 1.38736 1.78334C1.38586 1.78367 1.38437 1.784 1.3829 1.78432ZM128.944 1.99625C128.959 2.00416 129.556 2.01166 129.571 2.00381C129.894 1.81391 128.691 1.79868 128.944 1.99625ZM192.5 2.28604C192.533 2.3029 193.919 2.31867 193.964 2.30313C194.687 1.99258 191.885 1.95979 192.5 2.28604ZM88.7278 2.43398C88.0762 2.62503 87.2968 2.64753 86.7774 2.40762C87.4249 2.42035 88.0768 2.42223 88.7278 2.43398Z" fill="#311D13"/>
</svg>
