<svg width="1440" height="8" viewBox="0 0 1440 8" fill="none" xmlns="http://www.w3.org/2000/svg">
<path d="M13.7161 0.0406792C21.7854 -0.0635319 32.3631 0.047895 40.4019 0.200835C42.9213 0.248269 41.6456 0.460302 43.3847 0.502592C46.7862 0.585033 49.955 0.481044 53.3164 0.579252C54.4303 0.612836 53.0437 0.948696 54.2118 0.976223C60.6126 1.12465 66.6681 1.03911 73.1522 1.1105C105.091 1.46274 136.486 1.58882 168.816 1.74185C179.476 1.79202 192.434 2.09682 203.445 1.96352C204.73 1.94766 203.964 1.65286 204.208 1.62856C208.044 1.2566 206.769 1.85174 209.273 1.93081C219.213 2.24302 230.266 2.27017 239.832 2.1564C243.901 2.10713 239.821 1.52158 243.919 1.85024C244.203 1.87245 243.171 2.18551 244.287 2.2189C246.818 2.29399 251.619 2.23804 253.581 2.26284C257.361 2.31223 257.987 2.30908 261.563 2.31264C266.451 2.32025 272.265 2.47586 277.509 2.40493C278.629 2.38886 277.147 2.06794 278.932 2.01333C280.719 1.95881 285.446 1.98602 287.04 2.06167C288.634 2.13736 287.955 2.38959 288.237 2.44741C290.558 2.9354 296.027 2.25954 296.73 2.24282C309.558 1.95803 320.559 2.34304 332.6 2.34194C341.742 2.34029 351.516 2.21318 360.215 2.23061C370.577 2.25262 379.36 2.42652 389.427 2.39663C390.49 2.39384 389.245 2.01652 390.542 2.01235C404.329 1.96844 418.02 2.00958 431.747 2.2643C433.123 2.29018 431.349 2.62147 432.724 2.66714C441.145 2.9394 454.469 3.59343 459.471 2.15102C465.175 2.20735 472.1 2.26554 477.203 2.5563C480.493 2.74343 477.297 3.10434 481.339 2.95034C482.251 2.91603 481.065 2.59996 482.432 2.57241C488.188 2.4567 494.476 2.55944 500.17 2.39614C501.328 2.36218 501.012 2.07898 501.34 2.02798C504.097 1.61497 508.689 2.2977 509.689 2.34731C517.31 2.71726 522.876 2.57168 529.976 2.58071C531.623 2.58297 529.676 2.20256 531.261 2.19106C539.483 2.13654 548.001 2.16924 556.052 2.33804C557.843 2.3765 556.196 2.70054 557.052 2.73549C560.825 2.8857 561.661 2.27367 565.28 2.40591C566.043 2.433 565.613 2.7104 565.753 2.74087C567.931 3.21911 569.823 2.54147 570.383 2.52651C577.47 2.32209 582 3.02951 588.846 2.92934C589.665 2.91664 587.818 2.56565 590.12 2.55141C605.458 2.45452 621.68 2.55094 636.862 2.83169C639.222 2.87486 637.537 3.13854 637.686 3.17104C640.107 3.67891 641.673 2.99843 642.443 2.9728C648.515 2.78833 654.187 3.35899 658.313 2.54848C684.028 2.82976 709.626 2.37461 735.129 3.10073C735.453 3.10914 734.873 3.44428 735.519 3.45961C743.309 3.64779 741.813 3.12692 746.967 2.48989C748.266 2.32993 752.215 3.09904 752.565 3.15542C753.838 3.36317 752.517 3.86176 752.944 3.902C756.472 4.21793 755.897 2.56904 760.656 2.5685C760.805 2.57125 760.18 2.87475 760.579 2.90493C761.82 2.99967 763.051 2.87907 764.265 2.98354C767.044 3.22529 768.034 4.0265 772.28 3.5602C772.817 3.49968 771.997 2.56436 776.246 2.60854C777.94 2.62695 785.438 2.61092 787.54 2.67153C789.639 2.73207 788.198 3.03348 788.347 3.04653C794.003 3.44509 791.858 3.61027 794.692 4.20033C797.525 4.78817 796.739 3.38612 797.894 3.22963C799.051 3.07359 803.198 3.40243 804.217 3.51674C805.235 3.63111 803.965 3.82263 804.871 3.88735C810.875 4.31018 807.506 3.19142 809.485 2.96889C814.15 2.44199 817.783 3.48175 822.053 3.58364C823.209 3.61115 822.266 3.37434 823.295 3.35219C827.37 3.26762 829.821 3.59205 834.457 3.29458C835.215 3.2461 838.963 2.62097 841.389 3.07973C841.733 3.14589 840.757 3.40499 842.493 3.46303C845.088 3.55014 849.762 3.60677 852.551 3.52016C854.61 3.45608 852.25 3.02913 854.842 3.16176C855.994 3.22098 853.859 3.47075 856.023 3.56118C858.175 3.65157 863.679 3.6406 865.773 3.63198C867.864 3.62316 866.72 3.2993 866.889 3.27749C867.911 3.1525 871.923 2.99634 872.277 2.99672C890.16 2.95719 906.651 3.50309 924.062 3.32241C925.428 3.3087 924.518 2.96718 924.726 2.96157C929.404 2.81848 925.716 3.72649 928.983 4.03041C928.511 3.33738 930.44 3.46287 933.735 3.38686C935.323 3.34967 934.458 3.08132 934.603 3.05385C936.958 2.64627 938.597 3.17272 939.019 3.28042C940.579 3.67658 942.276 3.20848 943.337 3.47329C944.398 3.73611 941.957 4.12574 945.117 4.12074C946.003 3.87266 943.657 3.22435 946.056 3.11928C955.109 2.72184 972.006 3.23051 979.284 3.28334C986.548 3.33614 988.895 3.29037 993.127 3.38002C1000.77 3.54213 997.971 3.06113 1002.72 2.84096C1007.48 2.62082 1005.16 3.80431 1005.85 4.05873C1006.52 4.31304 1007.26 4.05126 1008.09 4.19106C1008.92 4.33082 1007.12 4.50381 1009.08 4.55629C1011.04 4.60872 1016.4 4.1563 1017.09 3.89028C1018.56 3.32669 1016.15 2.73518 1021.33 2.94301C1021.63 2.95535 1020.66 3.26654 1021.81 3.29799C1030.88 3.53756 1040.3 3.55241 1049.37 3.7643C1050.61 3.79392 1049.5 4.14012 1050.22 4.16127C1057.78 4.3827 1055.08 3.79898 1059.22 3.15053C1058.29 4.01348 1060.58 4.54143 1066.31 4.54652C1069.75 4.54989 1069.16 4.173 1071.39 3.90737C1072.06 3.82729 1074.5 4.08608 1074.94 3.90883C1076.39 3.32944 1074.1 2.68084 1080.01 2.93911C1080.27 2.95138 1079.44 3.26853 1080.34 3.28774C1086.13 3.41346 1086.82 2.80742 1093.08 2.73403C1097.99 2.67644 1106.71 3.046 1112.3 3.1061C1112.18 4.0763 1117.46 3.85413 1119.6 3.1852C1123.23 3.21259 1127.14 3.17477 1130.65 3.26723C1131.85 3.29875 1131.06 3.57965 1131.21 3.61C1133.55 4.08612 1135.12 3.43532 1135.91 3.40981C1144.39 3.16179 1151.3 3.65505 1159.39 3.17299C1159.68 3.15563 1160.15 2.4817 1162.31 2.97378C1162.45 3.00769 1159.78 3.31432 1163.59 3.33803C1167.39 3.3618 1174.57 3.72307 1179.86 3.41079C1181.14 3.3356 1184.38 2.78851 1186.98 3.21596C1187.32 3.27401 1186.94 3.46729 1187.44 3.57485C1189.06 3.91756 1189.94 3.23639 1191.84 3.81508C1193.74 4.39375 1197.68 4.82713 1203.02 4.42787C1203.19 4.41626 1204.45 3.87637 1206.13 3.88491C1208.8 3.899 1212.6 4.01147 1215.4 4.00795C1216.74 4.00607 1215.88 3.67082 1216.11 3.66469C1225.11 3.47683 1231.51 3.7757 1241.16 3.90541C1242.92 3.92985 1248 3.47269 1251.42 3.83412C1255.18 4.22978 1251.32 5.87565 1259.95 5.48353C1263.44 5.32669 1267.84 3.23861 1274.1 4.32045C1286.24 4.05238 1297.47 4.60606 1309.64 4.22328C1310.19 4.20632 1311.92 3.62356 1313.2 3.63149C1315.11 3.64439 1316.16 3.91677 1317.53 3.93471C1323.24 4.01675 1328.47 3.78372 1333.98 3.81996C1336.08 3.83313 1335.34 4.11477 1337.84 4.13051C1340.33 4.14599 1342 3.77513 1345.38 3.95424C1347.93 4.09077 1350.48 4.84879 1353.87 4.93715C1354 4.18944 1356.33 4.20484 1360.46 4.00746C1361.26 3.96917 1360.4 3.70893 1360.78 3.67739C1362.31 3.54326 1363.73 3.75894 1365.18 3.61293C1365.53 3.57787 1365.55 3.32252 1365.84 3.27944C1368.3 2.90339 1372.35 3.47777 1373.04 3.57778C1375.71 3.95758 1376.95 3.62548 1379 3.77504C1381.04 3.92459 1377.98 4.11154 1380.37 4.20229C1385.31 4.38999 1391.66 4.34876 1396.68 4.36049C1398.68 4.3636 1397.31 4.02275 1397.6 4.01528C1401.74 3.92883 1405.93 4.29139 1408.22 3.61245C1411.1 5.36795 1410.72 3.44217 1416.64 3.7936C1417.11 3.82202 1417.7 4.65219 1415.91 4.77406C1414.12 4.89582 1411.41 4.63633 1408.92 4.82631C1408.33 4.87089 1404.97 5.64881 1404.51 5.69593C1400.91 6.06421 1400.4 4.82365 1400.2 4.75551C1398.04 4.02018 1393.93 4.85824 1392.84 4.91615C1387.88 5.18149 1383.67 5.00703 1379.52 5.19642C1376.81 5.31883 1376.54 6.13145 1374.41 6.10658C1367.33 6.02436 1364.86 4.89076 1358.19 5.87367C1356.76 6.0833 1358.18 6.97147 1353.05 6.27308C1352.73 6.22905 1348.92 5.59015 1346.72 5.99427C1346.45 6.04523 1346.46 6.30407 1346.09 6.32582C1343.65 6.46647 1342.02 6.26026 1339.36 6.35902C1336.7 6.45778 1333.51 6.60501 1330.47 6.51722C1328.64 6.46472 1326.29 5.98246 1325.41 5.86439C1322.94 5.52426 1320.29 6.08193 1318.76 5.67006C1317.21 5.25611 1320.23 4.62746 1316.18 4.36C1316.03 5.0325 1315.69 5.72275 1315.44 6.39906C1306.57 6.37538 1297.83 6.15792 1288.92 6.18763C1287.81 6.19199 1288.94 6.55352 1287.76 6.56751C1282.76 6.62495 1278.4 6.36722 1273.22 6.46986C1269.21 6.55069 1264.81 6.93348 1260.62 7.02991C1258.06 6.26039 1251.83 6.52163 1247.31 6.4513C1245.73 6.427 1245.84 6.22148 1244.71 6.15443C1240.46 5.90645 1242.45 6.58647 1241.29 6.69349C1236.29 7.15022 1235.86 5.61103 1229.97 5.64906C1229.66 5.65055 1225.84 6.47101 1225.32 6.5221C1221.98 6.85527 1224.77 6.23653 1222.68 6.17591C1218.86 6.06513 1216.21 5.86919 1211.73 6.10951C1210.43 6.18069 1207.3 6.69207 1204.76 6.29652C1204.43 6.24472 1204.61 5.97353 1204.35 5.95765C1199.49 5.69292 1199.36 6.54504 1196.58 6.83363C1193.81 7.12215 1189.52 6.53393 1188.65 6.36439C1186.36 5.92581 1190.4 6.17696 1190.52 6.13392C1191.97 5.62174 1188.84 5.70992 1186.45 5.66664C1186.11 4.83113 1182.77 4.88128 1183.98 5.62513C1184.11 5.70638 1185.97 5.62847 1186.45 5.66664C1184.36 6.48639 1180.68 6.59137 1176.63 5.82533C1174.73 5.4663 1176.52 5.04768 1170.75 5.20082C1168.14 5.26995 1169.15 5.84524 1166.84 6.00209C1161.56 6.35994 1154.7 5.82329 1149.26 5.90785C1147.29 5.93855 1149.21 6.25346 1147.86 6.28529C1144.28 6.37075 1141.12 6.13446 1137.52 6.2555C1137.2 6.26687 1137.99 6.59652 1136.87 6.60072C1128.39 6.639 1121.01 6.42786 1112.15 6.42201C1107.88 6.41933 1100.23 6.60114 1095.79 6.56458C1088.11 6.50318 1078.66 6.02382 1072.1 6.14027C1067.82 6.21481 1068.76 6.54453 1066.93 6.76917C1063.39 7.20463 1057.13 6.42462 1056.28 6.30384C1056.26 6.29985 1059.94 6.22212 1057.97 6.05287C1056.83 5.7002 1056.32 6.30231 1056.28 6.30384C1055.73 6.22582 1048.37 6.15097 1046.91 6.214C1046.12 6.24844 1046.56 6.56083 1046.15 6.57289C1036.31 6.85244 1026.46 6.93184 1016.48 6.78577C1016.3 6.77946 1016.57 6.43004 1016.15 6.41957C1010.38 6.2642 1006.68 6.69166 1001.92 6.94544C997.153 7.19912 993.376 7.11415 990.556 6.51429C986.963 6.58982 981.807 6.32462 978.84 6.16371C975.872 6.00279 975.459 6.68297 975.198 6.69642C967.055 7.1268 962.348 6.73748 953.9 6.67689C949.884 6.64692 941.918 6.74558 937.569 6.81995C934.133 6.87987 932.062 6.72047 928.896 6.8224C928.467 6.83601 928.9 7.13886 928.769 7.15052C925.235 7.51286 926.934 6.7725 926.204 6.64027C923.559 6.15942 921.924 5.90332 917.398 6.12953C916.355 6.18133 913.314 7.24736 911.411 7.3097C908.937 7.3888 909.871 7.00669 907.28 7.09925C907.058 7.10682 907.104 7.34255 905.506 7.33216C898.084 7.28701 889.993 7.14984 882.281 7.17347C881.227 7.17579 882.578 7.5497 881.056 7.55921C873.913 7.60353 866.085 7.58969 859.127 7.41468C857.414 7.37042 858.488 7.10862 858.116 7.03089C855.833 6.56055 852.596 7.24394 852.063 7.25696C839.323 7.58537 829.573 6.96691 816.588 7.26136C815.881 7.27865 810.44 8.01126 808.013 7.38294C807.847 7.34114 805.445 6.69831 803.322 7.13782C803.19 7.16532 804.686 7.49626 802.075 7.46253C799.463 7.42887 795.26 7.64987 791.671 7.28626C790.534 7.17172 787.848 6.53047 784.458 7.04163C784.237 7.07732 779.004 8.23312 777.136 7.43568C776.833 7.30441 777.15 6.46053 773.104 6.8932C772.331 6.97708 773.734 7.16531 771.697 7.28284C768.577 7.46399 764.443 7.23797 760.607 7.6139C759.938 7.68045 757.09 8.25322 754.806 7.81849C754.448 7.7504 755.128 7.46867 753.922 7.43714C748.185 7.2859 742.179 7.47435 736.354 7.27943C734.291 7.21093 735.346 6.75548 733.196 6.63343C731.045 6.51142 726.712 6.39405 724.462 6.60218C722.211 6.8104 724.67 7.53628 721.297 7.59437C706.638 7.84664 692.116 7.42082 677.478 7.35853C675.307 7.34922 677.107 7.60897 673.908 7.6139C662.112 7.63322 641.747 7.87676 631.512 7.32484C623.311 6.88278 633.631 6.54623 627.364 6.36634C624.34 6.28053 621.068 7.12444 620.338 7.15101C613.207 7.42089 608.251 7.04705 601.832 7.16175C600.506 7.18555 601.806 7.5276 600.678 7.54407C596.825 7.60339 592.775 7.45072 589.093 7.47864C587.441 7.49196 587.746 7.7532 586.226 7.73304C582.589 7.6878 579.373 7.57799 575.827 7.33314C575.504 7.31082 577.683 6.98585 574.992 6.97376C570.637 6.95512 565.232 6.71358 560.221 6.96302C558.734 7.03806 558.676 7.63512 555.48 7.22279C554.81 7.13667 555.665 6.41972 551.943 7.03919C551.317 7.14213 545.064 7.97768 541.995 7.43909C541.185 7.29734 539.119 6.71067 537.331 6.80286C537.089 6.81758 538.06 7.13828 536.578 7.16956C531.357 7.27423 525.886 7.24001 520.522 7.34046C519.09 7.36792 521.223 7.69978 519.088 7.73011C513.218 7.81399 505.888 7.72949 500.148 7.62562C498.031 7.58669 499.494 7.31178 499.34 7.28187C496.864 6.79527 495.4 7.45207 494.578 7.49036C489.466 7.71968 485.573 7.41116 480.861 7.4928C479.561 7.5145 480.483 7.82767 480.224 7.8556C477.539 8.12844 479.539 7.56603 477.84 7.50403C473.08 7.3285 467.773 7.35367 462.959 7.39368C461.191 7.40884 463.178 7.77197 461.591 7.78138C452.199 7.84395 442.435 7.8092 433.268 7.60901C431.542 7.57066 432.628 7.29104 432.269 7.22718C429.789 6.78036 426.156 7.38983 425.32 7.44788C421.518 7.71297 420.042 7.46569 416.684 7.51185C400.284 7.74164 380.035 7.57787 364.554 7.47669C344.381 7.34648 328.728 7.08047 309.491 7.14954C308.268 7.15358 309.501 7.52556 308.447 7.53382C294.839 7.62349 281.443 7.47814 267.808 7.58558C266.69 7.59373 268.302 7.94637 266.507 7.97132C262.823 8.02496 258.157 8.00579 254.433 7.89319C252.616 7.83894 255.053 7.53635 253.224 7.48792C248.966 7.37447 244.403 7.34936 240.029 7.40589C238.168 7.43072 240.976 7.79138 238.557 7.79554C222.079 7.83132 205.896 7.89343 189.245 7.4264C188.103 7.39432 187.102 6.66132 184.675 6.80189C184.492 7.00532 184.502 7.24461 184.422 7.46204C160.435 7.57917 136.692 7.32506 112.637 7.28577C111.623 7.2842 113.376 7.67258 111.412 7.67151C100.048 7.66577 89.0121 7.77337 77.3875 7.38734C76.2341 7.34958 76.8258 6.66633 73.4269 6.76966C72.8274 6.78852 67.7082 6.87964 66.3846 7.02796C66.2049 7.05033 67.1388 7.36925 65.4893 7.37855C55.903 7.42698 45.8572 7.35417 36.2875 7.15931C34.7431 7.12725 36.3878 6.78763 35.2878 6.76185C27.4846 6.58156 18.9971 6.83974 11.5408 6.53138C6.54982 6.32376 8.39762 5.73669 5.74548 5.15883C5.37036 5.0773 2.27981 5.06438 2.11998 4.72816C1.70967 3.88272 3.20664 2.95697 2.5924 2.05581C2.46263 1.86171 -1.67643 2.07077 0.774157 1.60171C0.945356 1.57032 3.94619 1.41464 4.6853 1.25552C5.19989 1.14551 4.27258 0.803576 5.32251 0.662748C6.37235 0.522051 7.52598 0.808676 9.26661 0.643216C11.0064 0.475709 10.2414 0.0867252 13.7161 0.0406792ZM965.48 5.44447C962.733 5.11782 962.328 6.3142 965.299 6.02796C965.443 6.01271 965.622 5.4605 965.48 5.44447ZM1297.88 5.25551C1294.29 4.72782 1291.83 5.50373 1294.36 5.91127C1296.9 6.31836 1298.97 5.41547 1297.88 5.25551ZM1335.12 4.87025C1330.92 4.4542 1330.26 6.15071 1334.76 5.80775C1335.02 5.78837 1335.37 4.89441 1335.12 4.87025ZM18.0447 4.99428C18.0068 4.97839 15.7852 4.96291 15.7321 4.97865C14.5491 5.35862 18.9914 5.38932 18.0447 4.99428ZM1372.08 4.45082C1370.77 4.22133 1367 4.48625 1368.62 4.77162C1369.93 5.00119 1373.71 4.73629 1372.08 4.45082ZM822.169 4.16762C822.125 4.14979 820.533 4.13374 820.565 4.23451C820.673 4.55909 822.889 4.46749 822.169 4.16762ZM1434.89 4.43129C1425.61 4.36743 1419.99 2.96603 1430.09 3.12417C1431.92 3.15278 1426.15 3.57106 1428.48 3.69741C1432.74 3.92758 1435.57 3.04768 1439.92 3.51918C1440.71 3.60549 1435.42 4.43805 1434.88 4.43324C1434.88 4.43259 1434.89 4.43194 1434.89 4.43129ZM963.898 4.00746C963.843 3.99164 961.638 3.97664 961.585 3.99233C960.391 4.37214 964.833 4.40258 963.898 4.00746ZM729.23 3.42788C729.108 3.39416 723.991 3.36264 723.824 3.3937C721.155 4.0148 731.5 4.08038 729.23 3.42788ZM1112.39 3.13198C1114.8 2.74988 1117.67 2.70489 1119.59 3.18471C1117.2 3.15924 1114.79 3.15549 1112.39 3.13198Z" fill="#311D13"/>
</svg>
