<svg width="1440" height="8" viewBox="0 0 1440 8" fill="none" xmlns="http://www.w3.org/2000/svg">
<path d="M1426.28 7.95932C1418.21 8.06353 1407.64 7.95211 1399.6 7.79917C1397.08 7.75173 1398.35 7.5397 1396.62 7.49741C1393.21 7.41497 1390.04 7.51896 1386.68 7.42075C1385.57 7.38716 1386.96 7.0513 1385.79 7.02378C1379.39 6.87535 1373.33 6.96089 1366.85 6.8895C1334.91 6.53726 1303.51 6.41118 1271.18 6.25815C1260.52 6.20798 1247.57 5.90318 1236.56 6.03648C1235.27 6.05234 1236.04 6.34714 1235.79 6.37144C1231.96 6.7434 1233.23 6.14826 1230.73 6.06919C1220.79 5.75698 1209.73 5.72983 1200.17 5.8436C1196.1 5.89287 1200.18 6.47842 1196.08 6.14976C1195.8 6.12755 1196.83 5.81449 1195.71 5.7811C1193.18 5.70601 1188.38 5.76196 1186.42 5.73716C1182.64 5.68777 1182.01 5.69092 1178.44 5.68736C1173.55 5.67975 1167.74 5.52414 1162.49 5.59507C1161.37 5.61114 1162.85 5.93206 1161.07 5.98667C1159.28 6.04119 1154.55 6.01398 1152.96 5.93833C1151.37 5.86264 1152.04 5.61041 1151.76 5.55259C1149.44 5.0646 1143.97 5.74046 1143.27 5.75718C1130.44 6.04197 1119.44 5.65696 1107.4 5.65806C1098.26 5.65971 1088.48 5.78682 1079.79 5.76939C1069.42 5.74738 1060.64 5.57348 1050.57 5.60337C1049.51 5.60616 1050.76 5.98348 1049.46 5.98765C1035.67 6.03156 1021.98 5.99042 1008.25 5.7357C1006.88 5.70982 1008.65 5.37853 1007.28 5.33286C998.855 5.0606 985.531 4.40657 980.529 5.84898C974.825 5.79265 967.9 5.73446 962.797 5.4437C959.507 5.25657 962.703 4.89566 958.661 5.04966C957.749 5.08397 958.935 5.40004 957.568 5.42759C951.812 5.5433 945.524 5.44056 939.83 5.60386C938.672 5.63782 938.988 5.92102 938.66 5.97202C935.903 6.38503 931.311 5.7023 930.311 5.65269C922.69 5.28274 917.124 5.42832 910.024 5.41929C908.377 5.41703 910.324 5.79744 908.739 5.80894C900.517 5.86346 891.999 5.83076 883.948 5.66196C882.157 5.6235 883.804 5.29946 882.948 5.26451C879.175 5.1143 878.339 5.72633 874.72 5.59409C873.957 5.567 874.387 5.2896 874.247 5.25913C872.069 4.78089 870.177 5.45853 869.617 5.47349C862.53 5.67791 858 4.97049 851.154 5.07066C850.335 5.08336 852.182 5.43435 849.88 5.44859C834.542 5.54548 818.32 5.44906 803.138 5.16831C800.778 5.12514 802.463 4.86146 802.314 4.82896C799.893 4.32109 798.327 5.00157 797.557 5.0272C791.485 5.21167 785.813 4.64101 781.687 5.45152C755.972 5.17024 730.374 5.62539 704.871 4.89927C704.547 4.89086 705.127 4.55572 704.481 4.54039C696.691 4.35221 698.187 4.87308 693.033 5.51011C691.734 5.67007 687.785 4.90096 687.435 4.84458C686.162 4.63683 687.483 4.13824 687.056 4.098C683.528 3.78207 684.103 5.43096 679.344 5.4315C679.195 5.42875 679.82 5.12525 679.421 5.09507C678.18 5.00033 676.949 5.12093 675.735 5.01646C672.956 4.77471 671.966 3.9735 667.72 4.4398C667.183 4.50032 668.003 5.43564 663.754 5.39146C662.06 5.37305 654.562 5.38908 652.46 5.32847C650.361 5.26793 651.802 4.96652 651.653 4.95347C645.997 4.55491 648.142 4.38973 645.308 3.79967C642.475 3.21183 643.261 4.61388 642.106 4.77037C640.949 4.92641 636.802 4.59757 635.783 4.48326C634.765 4.36889 636.035 4.17737 635.129 4.11265C629.125 3.68982 632.494 4.80858 630.515 5.03111C625.85 5.55801 622.217 4.51825 617.947 4.41636C616.791 4.38885 617.734 4.62566 616.705 4.64781C612.63 4.73238 610.179 4.40795 605.543 4.70542C604.785 4.7539 601.037 5.37903 598.611 4.92027C598.267 4.85411 599.243 4.59501 597.507 4.53697C594.912 4.44986 590.238 4.39323 587.449 4.47984C585.39 4.54392 587.75 4.97087 585.158 4.83824C584.006 4.77902 586.141 4.52925 583.977 4.43882C581.825 4.34843 576.321 4.3594 574.227 4.36802C572.136 4.37684 573.28 4.7007 573.111 4.72251C572.089 4.8475 568.077 5.00366 567.723 5.00328C549.84 5.04281 533.349 4.49691 515.938 4.67759C514.572 4.6913 515.482 5.03282 515.274 5.03843C510.596 5.18152 514.284 4.27351 511.017 3.96959C511.489 4.66262 509.56 4.53713 506.265 4.61314C504.677 4.65033 505.542 4.91868 505.397 4.94615C503.042 5.35373 501.403 4.82728 500.981 4.71958C499.421 4.32342 497.724 4.79152 496.663 4.52671C495.602 4.26389 498.043 3.87426 494.883 3.87926C493.997 4.12734 496.343 4.77565 493.944 4.88072C484.891 5.27816 467.994 4.76949 460.716 4.71666C453.452 4.66386 451.105 4.70963 446.873 4.61998C439.227 4.45787 442.029 4.93887 437.282 5.15904C432.52 5.37918 434.835 4.19569 434.151 3.94127C433.479 3.68696 432.745 3.94874 431.909 3.80894C431.076 3.66918 432.88 3.49619 430.921 3.44371C428.96 3.39128 423.601 3.8437 422.906 4.10972C421.437 4.67331 423.852 5.26482 418.665 5.05699C418.367 5.04465 419.335 4.73346 418.193 4.70201C409.12 4.46244 399.695 4.44759 390.634 4.2357C389.388 4.20608 390.502 3.85988 389.777 3.83873C382.224 3.6173 384.924 4.20102 380.784 4.84947C381.714 3.98652 379.425 3.45857 373.693 3.45348C370.247 3.45011 370.84 3.827 368.611 4.09263C367.943 4.17271 365.505 3.91392 365.063 4.09117C363.606 4.67056 365.903 5.31916 359.993 5.06089C359.733 5.04862 360.559 4.73147 359.663 4.71226C353.872 4.58654 353.179 5.19258 346.919 5.26597C342.012 5.32356 333.285 4.954 327.698 4.8939C327.816 3.9237 322.539 4.14587 320.398 4.8148C316.772 4.78741 312.856 4.82523 309.351 4.73277C308.145 4.70125 308.937 4.42035 308.785 4.39C306.453 3.91388 304.877 4.56468 304.094 4.59019C295.612 4.83821 288.7 4.34495 280.605 4.82701C280.318 4.84437 279.852 5.5183 277.688 5.02622C277.548 4.99231 280.222 4.68568 276.414 4.66197C272.605 4.6382 265.425 4.27693 260.138 4.58921C258.858 4.6644 255.622 5.21149 253.024 4.78404C252.678 4.72599 253.057 4.53271 252.557 4.42515C250.942 4.08244 250.061 4.76361 248.163 4.18492C246.265 3.60625 242.316 3.17287 236.984 3.57213C236.814 3.58374 235.552 4.12363 233.875 4.11509C231.198 4.101 227.398 3.98853 224.602 3.99205C223.264 3.99393 224.121 4.32918 223.888 4.33531C214.889 4.52317 208.485 4.2243 198.845 4.09459C197.078 4.07015 191.999 4.52731 188.578 4.16588C184.822 3.77022 188.682 2.12435 180.047 2.51647C176.565 2.67331 172.155 4.76139 165.897 3.67955C153.759 3.94762 142.533 3.39394 130.361 3.77672C129.814 3.79368 128.083 4.37644 126.796 4.36851C124.886 4.35561 123.838 4.08323 122.473 4.06529C116.757 3.98325 111.527 4.21628 106.016 4.18004C103.924 4.16687 104.655 3.88523 102.16 3.86949C99.6655 3.85401 98.0024 4.22487 94.6228 4.04576C92.0706 3.90923 89.5184 3.15121 86.1304 3.06285C86.0012 3.81056 83.6743 3.79516 79.5386 3.99254C78.7435 4.03083 79.5962 4.29107 79.22 4.32261C77.6895 4.45674 76.2732 4.24106 74.8199 4.38707C74.4666 4.42213 74.4495 4.67748 74.1608 4.72056C71.7032 5.09661 67.6545 4.52223 66.9592 4.42222C64.2943 4.04242 63.0486 4.37452 61.0046 4.22496C58.9636 4.07541 62.0154 3.88846 59.6313 3.79771C54.6899 3.61001 48.3405 3.65124 43.3221 3.63951C41.3195 3.6364 42.686 3.97725 42.3993 3.98472C38.2587 4.07117 34.0713 3.70861 31.7754 4.38755C28.9045 2.63205 29.2787 4.55783 23.3599 4.2064C22.8937 4.17798 22.3007 3.34781 24.0905 3.22594C25.8802 3.10418 28.5945 3.36367 31.0778 3.17369C31.6661 3.12911 35.0344 2.35119 35.4944 2.30407C39.0948 1.93579 39.6047 3.17635 39.7955 3.24449C41.9554 3.97982 46.0723 3.14176 47.1564 3.08385C52.1157 2.81851 56.3293 2.99297 60.4773 2.80358C63.1902 2.68117 63.4557 1.86855 65.5859 1.89342C72.6676 1.97564 75.1395 3.10924 81.8127 2.12633C83.2435 1.9167 81.8217 1.02853 86.9489 1.72692C87.271 1.77095 91.0778 2.40985 93.277 2.00573C93.5532 1.95477 93.5444 1.69593 93.9087 1.67418C96.35 1.53353 97.9783 1.73974 100.638 1.64098C103.297 1.54222 106.495 1.39499 109.531 1.48278C111.361 1.53528 113.709 2.01754 114.585 2.13561C117.058 2.47574 119.711 1.91807 121.243 2.32994C122.788 2.74389 119.767 3.37254 123.819 3.64C123.969 2.9675 124.314 2.27725 124.555 1.60094C133.435 1.62462 142.172 1.84208 151.082 1.81237C152.186 1.80801 151.057 1.44648 152.241 1.43249C157.237 1.37505 161.6 1.63278 166.781 1.53014C170.792 1.44931 175.189 1.06652 179.383 0.970085C181.944 1.73961 188.167 1.47837 192.687 1.5487C194.27 1.573 194.165 1.77852 195.291 1.84557C199.539 2.09355 197.548 1.41353 198.713 1.30651C203.71 0.849776 204.138 2.38897 210.029 2.35094C210.341 2.34945 214.156 1.52899 214.682 1.4779C218.021 1.14473 215.234 1.76347 217.324 1.82409C221.139 1.93487 223.79 2.13081 228.266 1.89049C229.571 1.81931 232.703 1.30793 235.237 1.70348C235.571 1.75528 235.386 2.02647 235.655 2.04235C240.513 2.30708 240.64 1.45496 243.417 1.16637C246.193 0.877846 250.481 1.46607 251.354 1.63561C253.637 2.07419 249.604 1.82304 249.481 1.86608C248.029 2.37826 251.156 2.29008 253.546 2.33336C253.892 3.16887 257.234 3.11872 256.023 2.37487C255.885 2.29362 254.026 2.37153 253.546 2.33336C255.644 1.51361 259.317 1.40863 263.373 2.17467C265.272 2.5337 263.477 2.95232 269.245 2.79918C271.863 2.73005 270.852 2.15476 273.162 1.99791C278.44 1.64006 285.299 2.17671 290.74 2.09215C292.715 2.06145 290.791 1.74654 292.141 1.71471C295.723 1.62925 298.882 1.86554 302.479 1.7445C302.805 1.73313 302.009 1.40348 303.127 1.39928C311.608 1.361 318.992 1.57214 327.847 1.57799C332.125 1.58067 339.773 1.39886 344.205 1.43542C351.886 1.49682 361.335 1.97618 367.897 1.85973C372.177 1.78519 371.238 1.45547 373.072 1.23083C376.611 0.795366 382.874 1.57538 383.718 1.69616C383.743 1.70015 380.061 1.77788 382.026 1.94713C383.168 2.2998 383.676 1.69769 383.718 1.69616C384.271 1.77418 391.628 1.84903 393.089 1.786C393.883 1.75156 393.439 1.43917 393.853 1.42711C403.69 1.14756 413.544 1.06816 423.521 1.21423C423.697 1.22054 423.432 1.56996 423.845 1.58043C429.621 1.7358 433.32 1.30834 438.084 1.05456C442.847 0.800885 446.624 0.885847 449.444 1.48571C453.037 1.41018 458.193 1.67538 461.16 1.83629C464.128 1.99721 464.541 1.31703 464.802 1.30358C472.945 0.873197 477.652 1.26252 486.1 1.32311C490.116 1.35308 498.082 1.25442 502.431 1.18005C505.867 1.12013 507.938 1.27953 511.104 1.1776C511.533 1.16399 511.1 0.86114 511.231 0.84948C514.765 0.487137 513.066 1.2275 513.796 1.35973C516.441 1.84058 518.076 2.09668 522.602 1.87047C523.645 1.81867 526.686 0.752644 528.589 0.690301C531.063 0.611201 530.129 0.993307 532.72 0.900749C532.942 0.893179 532.896 0.657446 534.494 0.66784C541.916 0.712987 550.007 0.850155 557.719 0.826531C558.773 0.824208 557.422 0.450301 558.944 0.44079C566.087 0.396468 573.915 0.410306 580.873 0.585321C582.586 0.629575 581.512 0.891375 581.884 0.969109C584.167 1.43945 587.404 0.756057 587.938 0.743035C600.677 0.41463 610.427 1.03309 623.412 0.738641C624.119 0.721354 629.56 -0.0112553 631.987 0.617059C632.153 0.658861 634.555 1.30169 636.678 0.862175C636.81 0.83468 635.314 0.50374 637.925 0.537469C640.537 0.571126 644.74 0.350126 648.329 0.713738C649.466 0.828282 652.152 1.46953 655.542 0.958366C655.763 0.922683 660.996 -0.233121 662.864 0.564325C663.167 0.695592 662.85 1.53947 666.896 1.1068C667.669 1.02292 666.266 0.834693 668.303 0.717156C671.423 0.536006 675.557 0.762026 679.393 0.386103C680.062 0.319551 682.91 -0.253224 685.194 0.181513C685.552 0.249601 684.872 0.531331 686.078 0.56286C691.815 0.714098 697.821 0.525648 703.646 0.720574C705.709 0.789068 704.654 1.24452 706.804 1.36657C708.955 1.48858 713.288 1.60595 715.538 1.39782C717.789 1.1896 715.33 0.46372 718.703 0.405634C733.362 0.153363 747.884 0.579184 762.522 0.641473C764.693 0.650776 762.893 0.391034 766.092 0.386103C777.888 0.366779 798.253 0.123243 808.488 0.675164C816.689 1.11722 806.369 1.45377 812.636 1.63366C815.66 1.71947 818.932 0.87556 819.662 0.848992C826.793 0.579111 831.749 0.952945 838.168 0.83825C839.494 0.814449 838.194 0.472404 839.322 0.455927C843.175 0.396609 847.225 0.549282 850.907 0.521356C852.559 0.508041 852.254 0.246799 853.774 0.266962C857.411 0.312198 860.627 0.422012 864.173 0.666863C864.496 0.689175 862.317 1.01415 865.008 1.02624C869.363 1.04488 874.768 1.28642 879.779 1.03698C881.266 0.961942 881.324 0.36488 884.52 0.777215C885.19 0.863334 884.335 1.58028 888.057 0.960808C888.683 0.857867 894.936 0.0223176 898.005 0.560907C898.815 0.702657 900.881 1.28933 902.669 1.19714C902.911 1.18242 901.94 0.861719 903.422 0.830437C908.643 0.725771 914.114 0.759988 919.478 0.659539C920.91 0.632082 918.777 0.300217 920.912 0.269892C926.782 0.18601 934.112 0.270509 939.852 0.374384C941.969 0.413311 940.506 0.688217 940.66 0.718133C943.136 1.20473 944.6 0.547935 945.422 0.509637C950.534 0.280316 954.427 0.58884 959.139 0.507196C960.439 0.485497 959.517 0.172329 959.776 0.144404C962.461 -0.128438 960.461 0.433972 962.16 0.495965C966.92 0.671504 972.227 0.646335 977.041 0.606317C978.809 0.591157 976.822 0.228032 978.409 0.218623C987.801 0.15605 997.565 0.190797 1006.73 0.390985C1008.46 0.429338 1007.37 0.708955 1007.73 0.77282C1010.21 1.21964 1013.84 0.610174 1014.68 0.552118C1018.48 0.287035 1019.96 0.534307 1023.32 0.488153C1039.72 0.25836 1059.97 0.422132 1075.45 0.523309C1095.62 0.653524 1111.27 0.919531 1130.51 0.850457C1131.73 0.846417 1130.5 0.474439 1131.55 0.466181C1145.16 0.376509 1158.56 0.521862 1172.19 0.414423C1173.31 0.406265 1171.7 0.053628 1173.49 0.028682C1177.18 -0.0249586 1181.84 -0.00579214 1185.57 0.106807C1187.38 0.161059 1184.95 0.463654 1186.78 0.512079C1191.03 0.625527 1195.6 0.650642 1199.97 0.59411C1201.83 0.569284 1199.02 0.208625 1201.44 0.204463C1217.92 0.168682 1234.1 0.106568 1250.76 0.573602C1251.9 0.605678 1252.9 1.33868 1255.33 1.19811C1255.51 0.994684 1255.5 0.75539 1255.58 0.537958C1279.57 0.42083 1303.31 0.674938 1327.36 0.714226C1328.38 0.7158 1326.62 0.327419 1328.59 0.328486C1339.95 0.334228 1350.99 0.226635 1362.61 0.612664C1363.77 0.650417 1363.17 1.33367 1366.57 1.23034C1367.17 1.21148 1372.29 1.12036 1373.62 0.972038C1373.8 0.949666 1372.86 0.630748 1374.51 0.621454C1384.1 0.573025 1394.14 0.645833 1403.71 0.840691C1405.26 0.87275 1403.61 1.21237 1404.71 1.23815C1412.52 1.41844 1421 1.16026 1428.46 1.46862C1433.45 1.67624 1431.6 2.26331 1434.25 2.84117C1434.63 2.9227 1437.72 2.93562 1437.88 3.27184C1438.29 4.11728 1436.79 5.04303 1437.41 5.94419C1437.54 6.13829 1441.68 5.92923 1439.23 6.39829C1439.05 6.42968 1436.05 6.58536 1435.31 6.74448C1434.8 6.85449 1435.73 7.19642 1434.68 7.33725C1433.63 7.47795 1432.47 7.19132 1430.73 7.35678C1428.99 7.52429 1429.76 7.91327 1426.28 7.95932ZM474.52 2.55553C477.267 2.88218 477.672 1.6858 474.701 1.97204C474.557 1.98729 474.378 2.5395 474.52 2.55553ZM142.122 2.74449C145.714 3.27218 148.172 2.49627 145.638 2.08873C143.104 1.68164 141.028 2.58453 142.122 2.74449ZM104.879 3.12975C109.076 3.5458 109.737 1.84929 105.241 2.19225C104.98 2.21163 104.633 3.10559 104.879 3.12975ZM1421.96 3.00572C1421.99 3.02161 1424.21 3.03709 1424.27 3.02135C1425.45 2.64138 1421.01 2.61068 1421.96 3.00572ZM67.9205 3.54918C69.231 3.77867 73.0038 3.51375 71.3757 3.22838C70.0651 2.99881 66.2886 3.26371 67.9205 3.54918ZM617.831 3.83238C617.875 3.85021 619.467 3.86626 619.435 3.76549C619.327 3.44091 617.111 3.53251 617.831 3.83238ZM5.10608 3.56871C14.3866 3.63257 20.0137 5.03397 9.9071 4.87583C8.07715 4.84722 13.8514 4.42894 11.5221 4.30259C7.25964 4.07242 4.42944 4.95232 0.079834 4.48082C-0.707642 4.39451 4.57678 3.56195 5.12256 3.56676C5.11707 3.56741 5.11157 3.56806 5.10608 3.56871ZM476.102 3.99254C476.157 4.00836 478.362 4.02336 478.415 4.00767C479.609 3.62786 475.167 3.59742 476.102 3.99254ZM710.77 4.57212C710.892 4.60584 716.009 4.63736 716.176 4.6063C718.845 3.9852 708.5 3.91962 710.77 4.57212ZM327.61 4.86802C325.205 5.25012 322.327 5.29511 320.409 4.81529C322.8 4.84076 325.207 4.84451 327.61 4.86802Z" fill="#311D13"/>
</svg>
