<svg width="41" height="9" viewBox="0 0 41 9" fill="none" xmlns="http://www.w3.org/2000/svg">
<path d="M0.111084 0.5H40.1111V8.5H0.111084V0.5Z" fill="#311D13"/>
<path d="M1.02549 0.0050849C1.56345 -0.00794148 2.26862 0.00598687 2.80455 0.0251044C2.9725 0.0310336 2.88746 0.0575377 3.0034 0.062824C3.23016 0.0731291 3.44142 0.0601304 3.66551 0.0724065C3.73977 0.0766045 3.64733 0.118587 3.7252 0.122028C4.15193 0.140582 4.55562 0.129888 4.9879 0.138813C7.11716 0.182843 9.21017 0.198602 11.3655 0.217731C12.0761 0.224002 12.94 0.262103 13.6741 0.245441C13.7598 0.243458 13.7087 0.206608 13.725 0.203571C13.9807 0.157075 13.8957 0.231467 14.0626 0.241351C14.7253 0.280377 15.4621 0.283771 16.0999 0.269549C16.3712 0.263391 16.0991 0.190198 16.3723 0.23128C16.3913 0.234056 16.3225 0.273188 16.3969 0.277362C16.5656 0.286749 16.8857 0.279755 17.0165 0.282855C17.2685 0.289028 17.3102 0.288635 17.5486 0.289081C17.8745 0.290031 18.2621 0.309483 18.6117 0.300616C18.6863 0.298607 18.5875 0.258493 18.7066 0.251666C18.8257 0.244851 19.1408 0.248252 19.2471 0.257709C19.3534 0.26717 19.3081 0.298699 19.3269 0.305926C19.4816 0.366925 19.8462 0.282442 19.8931 0.280353C20.7483 0.244753 21.4817 0.29288 22.2844 0.292743C22.8939 0.292536 23.5455 0.276648 24.1254 0.278827C24.8162 0.281578 25.4018 0.303315 26.0729 0.299579C26.1437 0.29923 26.0607 0.252065 26.1472 0.251544C27.0663 0.246056 27.9791 0.251197 28.8942 0.283038C28.986 0.286273 28.8677 0.327684 28.9594 0.333392C29.5208 0.367424 30.409 0.449179 30.7425 0.268878C31.1227 0.275918 31.5844 0.283193 31.9246 0.319537C32.144 0.342929 31.9309 0.388042 32.2004 0.368792C32.2611 0.364503 32.1821 0.324995 32.2732 0.321551C32.6569 0.307088 33.0761 0.31993 33.4557 0.299518C33.5329 0.295273 33.5119 0.259872 33.5337 0.253497C33.7176 0.201871 34.0237 0.287213 34.0904 0.293414C34.5984 0.339658 34.9695 0.32146 35.4428 0.322589C35.5526 0.322871 35.4228 0.27532 35.5285 0.273883C36.0766 0.267068 36.6445 0.271155 37.1812 0.292254C37.3006 0.297062 37.1908 0.337567 37.2479 0.341937C37.4994 0.360712 37.5552 0.284209 37.7964 0.300738C37.8473 0.304125 37.8186 0.3388 37.8279 0.342608C37.9731 0.402389 38.0993 0.317684 38.1366 0.315814C38.6091 0.290261 38.9111 0.378689 39.3675 0.366168C39.4221 0.36458 39.299 0.320706 39.4524 0.318927C39.6697 0.316353 39.8897 0.31487 40.1111 0.314468L40.2947 0.312556L40.2966 0.5C40.2981 1.32039 40.2848 2.16041 40.2571 2.95746C40.2517 3.11482 40.2188 3.00249 40.2147 3.01239C40.1512 3.17379 40.2363 3.27822 40.2395 3.32953C40.2625 3.73433 40.1912 4.11247 40.2925 4.38751C40.2643 5.76314 40.2954 7.1337 40.2619 8.5L40.2634 8.64918L40.1111 8.65077C39.7746 8.64251 39.4384 8.63034 39.1025 8.61241C39.0808 8.61136 39.1196 8.56947 39.0765 8.56755C38.5572 8.54403 38.6569 8.60913 38.3133 8.68876C38.2267 8.70876 37.9634 8.61262 37.9401 8.60557C37.8552 8.5796 37.9433 8.51728 37.9148 8.51225C37.6796 8.47276 37.718 8.67887 37.4007 8.67894C37.3908 8.67859 37.4324 8.64066 37.4058 8.63688C37.3231 8.62504 37.241 8.64012 37.1601 8.62706C36.9748 8.59684 36.9088 8.49669 36.6258 8.55498C36.59 8.56254 36.6447 8.67945 36.3614 8.67393C36.2484 8.67163 35.7485 8.67364 35.6084 8.66606C35.4685 8.65849 35.5646 8.62082 35.5546 8.61918C35.1776 8.56936 35.3205 8.54872 35.1316 8.47496C34.9427 8.40148 34.9951 8.57673 34.9181 8.5963C34.841 8.6158 34.5646 8.5747 34.4966 8.56041C34.4287 8.54611 34.5134 8.52217 34.453 8.51408C34.0527 8.46123 34.2773 8.60107 34.1454 8.62889C33.8344 8.69475 33.5922 8.56478 33.3075 8.55205C33.2305 8.54861 33.2934 8.57821 33.2248 8.58098C32.9531 8.59155 32.7897 8.55099 32.4806 8.58818C32.4301 8.59424 32.1802 8.67238 32.0185 8.61503C31.9956 8.60676 32.0606 8.57438 31.9449 8.56712C31.7719 8.55623 31.4603 8.54915 31.2743 8.55998C31.1371 8.56799 31.2944 8.62136 31.1216 8.60478C31.0448 8.59738 31.1871 8.56616 31.0429 8.55485C30.8994 8.54355 30.5325 8.54492 30.3929 8.546C30.2535 8.5471 30.3298 8.58759 30.3185 8.59031C30.2504 8.60594 29.9829 8.62546 29.9593 8.62541C28.7671 8.63035 27.6677 8.56211 26.507 8.5847C26.4159 8.58641 26.4766 8.6291 26.4627 8.6298C26.1508 8.64769 26.3967 8.53419 26.1789 8.4962C26.2103 8.58283 26.0817 8.56714 25.8621 8.57664C25.7562 8.58129 25.8139 8.61483 25.8042 8.61827C25.6472 8.66922 25.5379 8.60341 25.5098 8.58995C25.4058 8.54043 25.2927 8.59894 25.2219 8.56584C25.1512 8.53299 25.314 8.48428 25.1033 8.48491C25.0442 8.51592 25.2006 8.59696 25.0407 8.61009C24.4372 8.65977 23.3107 8.59619 22.8255 8.58958C22.3412 8.58298 22.1848 8.5887 21.9026 8.5775C21.3929 8.55723 21.5797 8.61736 21.2632 8.64488C20.9458 8.6724 21.1001 8.52446 21.0545 8.49266C21.0097 8.46087 20.9608 8.49359 20.905 8.47612C20.8495 8.45865 20.9697 8.43702 20.8391 8.43046C20.7084 8.42391 20.3511 8.48046 20.3048 8.51372C20.2069 8.58416 20.3679 8.6581 20.0221 8.63212C20.0022 8.63058 20.0668 8.59168 19.9906 8.58775C19.3858 8.55781 18.7574 8.55595 18.1533 8.52946C18.0703 8.52576 18.1445 8.48249 18.0962 8.47984C17.5927 8.45216 17.7727 8.52513 17.4967 8.60618C17.5587 8.49832 17.4061 8.43232 17.0239 8.43168C16.7942 8.43126 16.8338 8.47837 16.6852 8.51158C16.6406 8.52159 16.4781 8.48924 16.4486 8.5114C16.3515 8.58382 16.5046 8.66489 16.1106 8.63261C16.0933 8.63108 16.1483 8.59143 16.0886 8.58903C15.7025 8.57332 15.6563 8.64907 15.239 8.65825C14.9119 8.66544 14.3301 8.61925 13.9576 8.61174C13.9655 8.49046 13.6137 8.51823 13.4709 8.60185C13.2292 8.59843 12.9681 8.60315 12.7345 8.5916C12.6541 8.58766 12.7069 8.55254 12.6968 8.54875C12.5413 8.48923 12.4362 8.57058 12.384 8.57377C11.8185 8.60478 11.3578 8.54312 10.8181 8.60338C10.799 8.60555 10.7679 8.68979 10.6236 8.62828C10.6143 8.62404 10.7926 8.58571 10.5387 8.58275C10.2848 8.57978 9.80611 8.53462 9.4536 8.57365C9.36829 8.58305 9.15253 8.65144 8.97935 8.598C8.95628 8.59075 8.98153 8.56659 8.94823 8.55314C8.84056 8.5103 8.78179 8.59545 8.65526 8.52312C8.52872 8.45078 8.26551 8.39661 7.91002 8.44652C7.89869 8.44797 7.81454 8.51545 7.70274 8.51439C7.52427 8.51263 7.27092 8.49857 7.08457 8.49901C6.99536 8.49924 7.05246 8.54115 7.03697 8.54191C6.43706 8.5654 6.01008 8.52804 5.36741 8.51182C5.2496 8.50877 4.91103 8.56591 4.68296 8.52073C4.43252 8.47128 4.68987 8.26554 4.11423 8.31456C3.88205 8.33416 3.58811 8.59517 3.17087 8.45994C2.36167 8.49345 1.6133 8.42424 0.801849 8.47209C0.765359 8.47421 0.649964 8.54706 0.564179 8.54606C0.436813 8.54445 0.366916 8.5104 0.275967 8.50816C0.220377 8.50667 0.165462 8.50601 0.111084 8.50596C0.105395 8.18167 0.0847097 7.88151 0.0885795 7.56771C0.0902257 7.42823 0.12543 7.477 0.127398 7.31063C0.129333 7.14437 0.0829751 7.0335 0.105364 6.80819C0.12243 6.63803 0.217183 6.46789 0.228227 6.24203C0.134764 6.23342 0.136689 6.07829 0.112017 5.80257C0.10723 5.74958 0.0746997 5.80641 0.0707573 5.78133C0.0539911 5.6793 0.0809516 5.58488 0.0627007 5.488C0.0583173 5.46443 0.0263989 5.46332 0.0210138 5.44405C-0.025992 5.28022 0.0458052 5.01031 0.0583062 4.96395C0.105782 4.78628 0.0642685 4.70325 0.0829643 4.56698C0.101658 4.43092 0.125026 4.63435 0.13637 4.47542C0.159833 4.14599 0.154678 3.72271 0.156145 3.38814C0.156533 3.25464 0.113927 3.34572 0.112993 3.32662C0.102187 3.05057 0.147508 2.77142 0.0626396 2.61836C0.282078 2.42697 0.0413553 2.4519 0.0852836 2.05733C0.0888366 2.02624 0.192607 1.98671 0.207842 2.10603C0.223062 2.22535 0.190625 2.4063 0.214373 2.57185C0.219946 2.61106 0.317185 2.83565 0.323076 2.86629C0.369111 3.10632 0.21404 3.14033 0.205522 3.15303C0.113607 3.29704 0.218364 3.57149 0.225603 3.64376C0.258771 3.97438 0.236962 4.25528 0.260637 4.53182C0.275938 4.71268 0.377516 4.73037 0.374406 4.8724C0.36413 5.34451 0.222428 5.5093 0.345293 5.95419C0.371497 6.04958 0.482518 5.95478 0.395219 6.29659C0.389716 6.31807 0.309853 6.57185 0.360368 6.71847C0.366737 6.73688 0.399093 6.7363 0.401811 6.76058C0.419392 6.92334 0.393616 7.03189 0.405961 7.20919C0.418307 7.38648 0.436711 7.59967 0.425737 7.80209C0.419174 7.92408 0.358891 8.0806 0.344133 8.139C0.311564 8.26532 0.34485 8.39862 0.339065 8.5L0.111084 8.27202C0.142047 8.27379 0.170037 8.2792 0.193934 8.29124C0.296954 8.34299 0.095556 8.42157 0.365689 8.455C0.375697 8.37094 0.398674 8.28466 0.41476 8.20012C1.00676 8.20308 1.58923 8.23026 2.1832 8.22655C2.25684 8.226 2.18153 8.18081 2.26047 8.17906C2.59352 8.17188 2.88444 8.2041 3.22983 8.19127C3.49719 8.18116 3.79036 8.13332 4.06992 8.12126C4.24069 8.21745 4.65553 8.1848 4.95689 8.19359C5.06245 8.19662 5.0554 8.22231 5.13047 8.2307C5.41369 8.26169 5.28097 8.17669 5.35862 8.16331C5.69175 8.10622 5.72027 8.29862 6.11301 8.29387C6.13383 8.29368 6.38816 8.19112 6.4232 8.18474C6.64578 8.14309 6.46004 8.22043 6.59935 8.22801C6.85369 8.24186 7.03043 8.26635 7.32884 8.23631C7.41585 8.22741 7.62458 8.16349 7.79356 8.21293C7.81578 8.21941 7.80351 8.25331 7.82139 8.25529C8.14526 8.28839 8.15378 8.18187 8.33885 8.1458C8.52396 8.10973 8.80984 8.18326 8.86803 8.20445C9.02024 8.25927 8.75139 8.22788 8.74315 8.23326C8.64632 8.29728 8.85483 8.28626 9.01414 8.29167C9.03721 8.39611 9.26001 8.38984 9.17931 8.29686C9.17012 8.2867 9.04614 8.29644 9.01414 8.29167C9.154 8.1892 9.39885 8.17608 9.6693 8.27183C9.79589 8.31671 9.67622 8.36904 10.0608 8.3499C10.2353 8.34126 10.1679 8.26934 10.3219 8.24974C10.6738 8.20501 11.131 8.27209 11.4938 8.26152C11.6254 8.25768 11.4972 8.21832 11.5871 8.21434C11.8259 8.20366 12.0365 8.23319 12.2764 8.21806C12.2981 8.21664 12.245 8.17544 12.3196 8.17491C12.8849 8.17013 13.3772 8.19652 13.9675 8.19725C14.2527 8.19758 14.7626 8.17486 15.0581 8.17943C15.5702 8.1871 16.2001 8.24702 16.6376 8.23247C16.9229 8.22315 16.8603 8.18193 16.9825 8.15385C17.2185 8.09942 17.636 8.19692 17.6923 8.21202C17.694 8.21252 17.4485 8.22224 17.5795 8.24339C17.6556 8.28747 17.6895 8.21221 17.6923 8.21202C17.7292 8.22177 18.2196 8.23113 18.317 8.22325C18.3699 8.21894 18.3403 8.1799 18.3679 8.17839C19.0237 8.14345 19.6807 8.13352 20.3458 8.15178C20.3575 8.15257 20.3399 8.19624 20.3674 8.19755C20.7525 8.21697 20.9991 8.16354 21.3167 8.13182C21.6342 8.10011 21.886 8.11073 22.074 8.18571C22.3136 8.17627 22.6573 8.20942 22.8551 8.22954C23.0529 8.24965 23.0805 8.16463 23.0979 8.16295C23.6407 8.10915 23.9545 8.15781 24.5177 8.16539C24.7855 8.16914 25.3166 8.1568 25.6065 8.14751C25.8356 8.14002 25.9736 8.15994 26.1847 8.1472C26.2133 8.1455 26.1844 8.10764 26.1931 8.10618C26.4287 8.06089 26.3155 8.15344 26.3642 8.16997C26.5405 8.23007 26.6495 8.26208 26.9512 8.23381C27.0208 8.22733 27.2235 8.09408 27.3504 8.08629C27.5153 8.0764 27.4531 8.12416 27.6258 8.11259C27.6405 8.11165 27.6375 8.08218 27.744 8.08348C28.2388 8.08912 28.7782 8.10627 29.2924 8.10332C29.3626 8.10303 29.2726 8.05629 29.374 8.0551C29.8502 8.04956 30.3721 8.05129 30.836 8.07316C30.9501 8.0787 30.8786 8.11142 30.9033 8.12114C31.0555 8.17993 31.2713 8.09451 31.3069 8.09288C32.1562 8.05183 32.8063 8.12914 33.6719 8.09233C33.719 8.09017 34.0817 7.99859 34.2436 8.07713C34.2546 8.08236 34.4147 8.16271 34.5563 8.10777C34.5651 8.10433 34.4653 8.06297 34.6394 8.06718C34.8135 8.07139 35.0937 8.04377 35.333 8.08922C35.4088 8.10354 35.5879 8.18369 35.8139 8.1198C35.8286 8.11534 36.1775 7.97086 36.302 8.07054C36.3222 8.08695 36.3011 8.19243 36.5708 8.13835C36.6224 8.12787 36.5288 8.10434 36.6646 8.08964C36.8726 8.067 37.1482 8.09525 37.404 8.04826C37.4486 8.03994 37.6384 7.96835 37.7907 8.02269C37.8145 8.0312 37.7692 8.06642 37.8497 8.07036C38.2321 8.08926 38.6325 8.06571 39.0208 8.09007C39.1583 8.09863 39.088 8.15556 39.2314 8.17082C39.3748 8.18607 39.6636 8.20074 39.8136 8.17473C39.9637 8.1487 39.7998 8.05796 40.0246 8.0507C40.0534 8.04977 40.0823 8.04892 40.1111 8.04813L39.6592 8.5C39.6334 7.55206 39.6837 6.61229 39.6913 5.66523C39.6924 5.52049 39.66 5.64048 39.6593 5.42719C39.6569 4.64081 39.6265 3.28313 39.6955 2.60077C39.7507 2.05404 39.7928 2.74206 39.8153 2.32428C39.826 2.12267 39.7205 1.90456 39.7172 1.85589C39.6835 1.38046 39.7302 1.05004 39.7159 0.622126C39.7129 0.53376 39.6701 0.620429 39.6681 0.545221C39.6676 0.53019 39.6673 0.515114 39.667 0.5L40.1111 0.944048C39.8679 0.948268 39.6151 0.931544 39.384 0.93483C39.2738 0.936495 39.2941 0.96915 39.1928 0.96663C38.9503 0.960975 38.7359 0.947249 38.4996 0.916642C38.478 0.913853 38.6233 0.873231 38.4439 0.87172C38.1536 0.869391 37.7932 0.839197 37.4592 0.870378C37.3601 0.879757 37.3562 0.95439 37.1431 0.902848C37.0984 0.892083 37.1554 0.802465 36.9073 0.879899C36.8655 0.892767 36.4487 0.99721 36.2441 0.929887C36.1901 0.912168 36.0523 0.838833 35.9332 0.850358C35.917 0.852197 35.9817 0.892285 35.883 0.896195C35.5349 0.909279 35.1701 0.905002 34.8125 0.917558C34.7171 0.92099 34.8593 0.962473 34.717 0.966264C34.3256 0.976749 33.837 0.966186 33.4543 0.953202C33.3132 0.948336 33.4107 0.913973 33.4004 0.910233C33.2353 0.849408 33.1377 0.931508 33.0829 0.936295C32.7421 0.96496 32.4826 0.926395 32.1685 0.936601C32.0818 0.939313 32.1433 0.978459 32.126 0.981949C31.9471 1.01605 32.0804 0.945754 31.9671 0.938004C31.6497 0.916062 31.2959 0.919208 30.975 0.92421C30.8571 0.926105 30.9896 0.971496 30.8838 0.972672C30.2577 0.980494 29.6067 0.97615 28.9956 0.951127C28.8806 0.946333 28.953 0.911381 28.929 0.903397C28.7637 0.847545 28.5215 0.923728 28.4657 0.930985C28.2123 0.964121 28.1139 0.933212 27.89 0.938981C26.7967 0.967705 25.4467 0.947234 24.4147 0.934586C23.0698 0.918309 22.0263 0.885059 20.7438 0.893693C20.6623 0.894198 20.7445 0.940695 20.6742 0.941727C19.767 0.952936 18.874 0.934767 17.965 0.948197C17.8904 0.949217 17.9979 0.993297 17.8782 0.996415C17.6326 1.00312 17.3215 1.00072 17.0733 0.986649C16.9521 0.979868 17.1146 0.942043 16.9927 0.93599C16.7088 0.921809 16.4046 0.91867 16.113 0.925736C15.989 0.92884 16.1762 0.973922 16.0149 0.974442C14.9164 0.978915 13.8375 0.986679 12.7274 0.9283C12.6513 0.92429 12.5845 0.832665 12.4227 0.850236C12.4105 0.875664 12.4112 0.905576 12.4059 0.932755C10.8067 0.947396 9.22388 0.915633 7.62023 0.910722C7.55262 0.910525 7.66947 0.959073 7.53856 0.958939C6.78093 0.958222 6.04522 0.971671 5.27025 0.923417C5.19336 0.918698 5.23281 0.833291 5.00621 0.846208C4.96625 0.848565 4.62496 0.859955 4.53673 0.878495C4.52474 0.881292 4.58701 0.921156 4.47703 0.922318C3.83795 0.928372 3.16823 0.919271 2.53025 0.894914C2.42729 0.890906 2.53694 0.848454 2.4636 0.845231C1.94339 0.822696 1.37755 0.854967 0.880469 0.816423C0.547738 0.79047 0.670925 0.717087 0.494116 0.644853C0.469108 0.634662 0.263071 0.633047 0.252416 0.591021C0.225062 0.48534 0.32486 0.369621 0.283911 0.256976C0.275259 0.232713 -0.000677891 0.258846 0.162694 0.200214C0.174108 0.19629 0.374163 0.17683 0.423437 0.15694C0.457743 0.143188 0.395923 0.100447 0.465918 0.0828435C0.535907 0.0652564 0.612816 0.101084 0.728858 0.080402C0.844847 0.0594636 0.793846 0.0108407 1.02549 0.0050849ZM23.7457 8.31944C23.9289 8.36027 23.9559 8.21072 23.7578 8.2465C23.7482 8.24841 23.7363 8.31744 23.7457 8.31944ZM1.58591 8.34306C1.82535 8.40902 1.9892 8.31203 1.82028 8.26109C1.65139 8.2102 1.51295 8.32307 1.58591 8.34306ZM0.219866 7.49191C0.167859 7.77175 0.379923 7.8158 0.337053 7.51608C0.33463 7.49865 0.222886 7.47555 0.219866 7.49191ZM1.31406 0.624285C1.31154 0.622299 1.16343 0.620363 1.15989 0.622331C1.08102 0.669827 1.37718 0.673665 1.31406 0.624285ZM0.167437 5.02804C0.13875 5.11539 0.171865 5.36693 0.207537 5.25838C0.236233 5.171 0.203121 4.91924 0.167437 5.02804ZM33.2998 8.47905C33.3027 8.48128 33.4089 8.48328 33.4068 8.47069C33.3996 8.43011 33.2518 8.44156 33.2998 8.47905ZM0.164995 0.840405C0.157013 1.45911 -0.0181621 1.83423 0.00160468 1.16047C0.00518107 1.03846 0.0574667 1.42344 0.0732597 1.26814C0.102032 0.983983 -0.00795647 0.795298 0.050982 0.505322C0.0617697 0.452827 0.16584 0.805112 0.165239 0.841504C0.165158 0.841138 0.165077 0.840772 0.164995 0.840405ZM23.8512 8.49907C23.8549 8.50104 24.0019 8.50292 24.0054 8.50096C24.085 8.45348 23.7889 8.44968 23.8512 8.49907ZM39.4958 8.57152C39.5039 8.57573 39.845 8.57967 39.8561 8.57579C40.0341 8.49815 39.3444 8.48995 39.4958 8.57152ZM13.9518 8.6085C13.7914 8.65627 13.5995 8.66189 13.4717 8.60191C13.6311 8.60509 13.7915 8.60556 13.9518 8.6085Z" fill="#311D13"/>
</svg>
