<svg width="390" height="8" viewBox="0 0 390 8" fill="none" xmlns="http://www.w3.org/2000/svg">
<path d="M3.71477 0.0406792C5.90022 -0.0635319 8.76499 0.047895 10.9422 0.200835C11.6245 0.248269 11.279 0.460302 11.75 0.502592C12.6712 0.585033 13.5295 0.481044 14.4399 0.579252C14.7416 0.612836 14.366 0.948696 14.6824 0.976223C16.4159 1.12465 18.0559 1.03911 19.8121 1.1105C28.4622 1.46274 36.965 1.58882 45.721 1.74185C48.608 1.79202 52.1176 2.09682 55.0996 1.96352C55.4478 1.94766 55.2402 1.65286 55.3064 1.62856C56.3453 1.2566 55.9999 1.85174 56.6781 1.93081C59.3702 2.24302 62.3637 2.27017 64.9544 2.1564C66.0566 2.10713 64.9515 1.52158 66.0613 1.85024C66.1384 1.87245 65.8587 2.18551 66.161 2.2189C66.8464 2.29399 68.1469 2.23804 68.6782 2.26284C69.7021 2.31223 69.8714 2.30908 70.8399 2.31264C72.1638 2.32025 73.7384 2.47586 75.1588 2.40493C75.462 2.38886 75.0606 2.06794 75.5441 2.01333C76.0281 1.95881 77.3084 1.98602 77.74 2.06167C78.1718 2.13736 77.9879 2.38959 78.0643 2.44741C78.6929 2.9354 80.1739 2.25954 80.3644 2.24282C83.8387 1.95803 86.818 2.34304 90.0793 2.34194C92.5551 2.34029 95.2024 2.21318 97.5581 2.23061C100.365 2.25262 102.743 2.42652 105.47 2.39663C105.758 2.39384 105.42 2.01652 105.772 2.01235C109.506 1.96844 113.214 2.00958 116.931 2.2643C117.304 2.29018 116.824 2.62147 117.196 2.66714C119.477 2.9394 123.085 3.59343 124.44 2.15102C125.985 2.20735 127.86 2.26554 129.242 2.5563C130.134 2.74343 129.268 3.10434 130.363 2.95034C130.61 2.91603 130.289 2.59996 130.659 2.57241C132.218 2.4567 133.921 2.55944 135.463 2.39614C135.776 2.36218 135.691 2.07898 135.78 2.02798C136.526 1.61497 137.77 2.2977 138.041 2.34731C140.105 2.71726 141.612 2.57168 143.535 2.58071C143.981 2.58297 143.454 2.20256 143.883 2.19106C146.11 2.13654 148.417 2.16924 150.597 2.33804C151.082 2.3765 150.636 2.70054 150.868 2.73549C151.89 2.8857 152.117 2.27367 153.097 2.40591C153.303 2.433 153.187 2.7104 153.225 2.74087C153.815 3.21911 154.327 2.54147 154.479 2.52651C156.398 2.32209 157.625 3.02951 159.479 2.92934C159.701 2.91664 159.201 2.56565 159.824 2.55141C163.978 2.45452 168.372 2.55094 172.483 2.83169C173.123 2.87486 172.666 3.13854 172.707 3.17104C173.362 3.67891 173.787 2.99843 173.995 2.9728C175.639 2.78833 177.176 3.35899 178.293 2.54848C185.258 2.82976 192.19 2.37461 199.098 3.10073C199.185 3.10914 199.028 3.44428 199.203 3.45961C201.313 3.64779 200.908 3.12692 202.304 2.48989C202.655 2.32993 203.725 3.09904 203.82 3.15542C204.164 3.36317 203.807 3.86176 203.922 3.902C204.878 4.21793 204.722 2.56904 206.011 2.5685C206.051 2.57125 205.882 2.87475 205.99 2.90493C206.326 2.99967 206.66 2.87907 206.988 2.98354C207.741 3.22529 208.009 4.0265 209.159 3.5602C209.305 3.49968 209.082 2.56436 210.233 2.60854C210.692 2.62695 212.723 2.61092 213.292 2.67153C213.86 2.73207 213.47 3.03348 213.511 3.04653C215.042 3.44509 214.462 3.61027 215.229 4.20033C215.996 4.78817 215.784 3.38612 216.096 3.22963C216.41 3.07359 217.533 3.40243 217.809 3.51674C218.085 3.63111 217.741 3.82263 217.986 3.88735C219.612 4.31018 218.7 3.19142 219.236 2.96889C220.499 2.44199 221.483 3.48175 222.639 3.58364C222.952 3.61115 222.697 3.37434 222.976 3.35219C224.079 3.26762 224.743 3.59205 225.999 3.29458C226.204 3.2461 227.219 2.62097 227.876 3.07973C227.969 3.14589 227.705 3.40499 228.175 3.46303C228.878 3.55014 230.144 3.60677 230.899 3.52016C231.457 3.45608 230.818 3.02913 231.52 3.16176C231.832 3.22098 231.254 3.47075 231.84 3.56118C232.423 3.65157 233.913 3.6406 234.48 3.63198C235.046 3.62316 234.737 3.2993 234.782 3.27749C235.059 3.1525 236.146 2.99634 236.242 2.99672C241.085 2.95719 245.551 3.50309 250.267 3.32241C250.637 3.3087 250.39 2.96718 250.447 2.96157C251.714 2.81848 250.715 3.72649 251.6 4.03041C251.472 3.33738 251.994 3.46287 252.887 3.38686C253.317 3.34967 253.082 3.08132 253.122 3.05385C253.759 2.64627 254.203 3.17272 254.318 3.28042C254.74 3.67658 255.2 3.20848 255.487 3.47329C255.774 3.73611 255.113 4.12574 255.969 4.12074C256.209 3.87266 255.574 3.22435 256.224 3.11928C258.675 2.72184 263.252 3.23051 265.223 3.28334C267.19 3.33614 267.826 3.29037 268.972 3.38002C271.043 3.54213 270.284 3.06113 271.57 2.84096C272.859 2.62082 272.232 3.80431 272.418 4.05873C272.6 4.31304 272.798 4.05126 273.025 4.19106C273.25 4.33082 272.762 4.50381 273.292 4.55629C273.823 4.60872 275.275 4.1563 275.463 3.89028C275.861 3.32669 275.207 2.73518 276.611 2.94301C276.692 2.95535 276.43 3.26654 276.739 3.29799C279.197 3.53756 281.749 3.55241 284.203 3.7643C284.541 3.79392 284.239 4.14012 284.435 4.16127C286.481 4.3827 285.75 3.79898 286.871 3.15053C286.619 4.01348 287.239 4.54143 288.792 4.54652C289.725 4.54989 289.564 4.173 290.168 3.90737C290.349 3.82729 291.009 4.08608 291.129 3.90883C291.523 3.32944 290.901 2.68084 292.502 2.93911C292.572 2.95138 292.349 3.26853 292.591 3.28774C294.16 3.41346 294.347 2.80742 296.043 2.73403C297.372 2.67644 299.735 3.046 301.248 3.1061C301.217 4.0763 302.646 3.85413 303.226 3.1852C304.208 3.21259 305.268 3.17477 306.217 3.26723C306.544 3.29875 306.329 3.57965 306.371 3.61C307.002 4.08612 307.429 3.43532 307.641 3.40981C309.939 3.16179 311.81 3.65505 314.003 3.17299C314.081 3.15563 314.207 2.4817 314.793 2.97378C314.831 3.00769 314.106 3.31432 315.138 3.33803C316.169 3.3618 318.114 3.72307 319.546 3.41079C319.893 3.3356 320.769 2.78851 321.473 3.21596C321.566 3.27401 321.464 3.46729 321.599 3.57485C322.036 3.91756 322.275 3.23639 322.789 3.81508C323.303 4.39375 324.373 4.82713 325.817 4.42787C325.863 4.41626 326.205 3.87637 326.659 3.88491C327.384 3.899 328.413 4.01147 329.17 4.00795C329.533 4.00607 329.301 3.67082 329.364 3.66469C331.801 3.47683 333.535 3.7757 336.146 3.90541C336.625 3.92985 338 3.47269 338.927 3.83412C339.944 4.22978 338.899 5.87565 341.237 5.48353C342.18 5.32669 343.375 3.23861 345.07 4.32045C348.357 4.05238 351.397 4.60606 354.694 4.22328C354.842 4.20632 355.311 3.62356 355.659 3.63149C356.177 3.64439 356.461 3.91677 356.83 3.93471C358.378 4.01675 359.795 3.78372 361.287 3.81996C361.854 3.83313 361.656 4.11477 362.332 4.13051C363.007 4.14599 363.458 3.77513 364.373 3.95424C365.064 4.09077 365.755 4.84879 366.673 4.93715C366.708 4.18944 367.338 4.20484 368.458 4.00746C368.674 3.96917 368.443 3.70893 368.545 3.67739C368.959 3.54326 369.343 3.75894 369.736 3.61293C369.832 3.57787 369.836 3.32252 369.915 3.27944C370.58 2.90339 371.677 3.47777 371.865 3.57778C372.587 3.95758 372.924 3.62548 373.478 3.77504C374.031 3.92459 373.204 4.11154 373.85 4.20229C375.188 4.38999 376.908 4.34876 378.267 4.36049C378.809 4.3636 378.439 4.02275 378.517 4.01528C379.638 3.92883 380.772 4.29139 381.394 3.61245C382.172 5.36795 382.07 3.44217 383.673 3.7936C383.8 3.82202 383.96 4.65219 383.475 4.77406C382.991 4.89582 382.256 4.63633 381.583 4.82631C381.424 4.87089 380.511 5.64881 380.387 5.69593C379.412 6.06421 379.274 4.82365 379.222 4.75551C378.637 4.02018 377.522 4.85824 377.228 4.91615C375.885 5.18149 374.744 5.00703 373.621 5.19642C372.886 5.31883 372.814 6.13145 372.237 6.10658C370.319 6.02436 369.65 4.89076 367.842 5.87367C367.455 6.0833 367.84 6.97147 366.451 6.27308C366.364 6.22905 365.333 5.59015 364.737 5.99427C364.663 6.04523 364.665 6.30407 364.566 6.32582C363.905 6.46647 363.464 6.26026 362.744 6.35902C362.024 6.45778 361.158 6.60501 360.335 6.51722C359.84 6.46472 359.204 5.98246 358.967 5.86439C358.297 5.52426 357.578 6.08193 357.163 5.67006C356.745 5.25611 357.563 4.62746 356.466 4.36C356.425 5.0325 356.332 5.72275 356.266 6.39906C353.861 6.37538 351.495 6.15792 349.082 6.18763C348.783 6.19199 349.089 6.55352 348.768 6.56751C347.415 6.62495 346.233 6.36722 344.83 6.46986C343.744 6.55069 342.553 6.93348 341.417 7.02991C340.724 6.26039 339.038 6.52163 337.814 6.4513C337.385 6.427 337.414 6.22148 337.109 6.15443C335.958 5.90645 336.497 6.58647 336.182 6.69349C334.829 7.15022 334.713 5.61103 333.117 5.64906C333.033 5.65055 331.999 6.47101 331.857 6.5221C330.953 6.85527 331.707 6.23653 331.141 6.17591C330.108 6.06513 329.39 5.86919 328.178 6.10951C327.824 6.18069 326.976 6.69207 326.29 6.29652C326.2 6.24472 326.25 5.97353 326.177 5.95765C324.861 5.69292 324.826 6.54504 324.075 6.83363C323.323 7.12215 322.161 6.53393 321.925 6.36439C321.307 5.92581 322.399 6.17696 322.432 6.13392C322.826 5.62174 321.979 5.70992 321.331 5.66664C321.238 4.83113 320.332 4.88128 320.66 5.62513C320.698 5.70638 321.201 5.62847 321.331 5.66664C320.763 6.48639 319.768 6.59137 318.67 5.82533C318.155 5.4663 318.642 5.04768 317.079 5.20082C316.37 5.26995 316.644 5.84524 316.019 6.00209C314.589 6.35994 312.732 5.82329 311.258 5.90785C310.723 5.93855 311.244 6.25346 310.878 6.28529C309.908 6.37075 309.053 6.13446 308.079 6.2555C307.99 6.26687 308.206 6.59652 307.903 6.60072C305.606 6.639 303.606 6.42786 301.208 6.42201C300.049 6.41933 297.978 6.60114 296.778 6.56458C294.697 6.50318 292.138 6.02382 290.361 6.14027C289.202 6.21481 289.456 6.54453 288.96 6.76917C288.001 7.20463 286.305 6.42462 286.076 6.30384C286.069 6.29985 287.067 6.22212 286.535 6.05287C286.225 5.7002 286.088 6.30231 286.076 6.30384C285.926 6.22582 283.934 6.15097 283.538 6.214C283.323 6.24844 283.444 6.56083 283.332 6.57289C280.667 6.85244 277.998 6.93184 275.296 6.78577C275.249 6.77946 275.32 6.43004 275.209 6.41957C273.644 6.2642 272.643 6.69166 271.352 6.94544C270.062 7.19912 269.039 7.11415 268.276 6.51429C267.302 6.58982 265.906 6.32462 265.102 6.16371C264.299 6.00279 264.187 6.68297 264.116 6.69642C261.911 7.1268 260.636 6.73748 258.348 6.67689C257.26 6.64692 255.103 6.74558 253.925 6.81995C252.994 6.87987 252.434 6.72047 251.576 6.8224C251.46 6.83601 251.577 7.13886 251.542 7.15052C250.584 7.51286 251.045 6.7725 250.847 6.64027C250.13 6.15942 249.688 5.90332 248.462 6.12953C248.179 6.18133 247.356 7.24736 246.84 7.3097C246.17 7.3888 246.423 7.00669 245.722 7.09925C245.662 7.10682 245.674 7.34255 245.241 7.33216C243.231 7.28701 241.04 7.14984 238.951 7.17347C238.666 7.17579 239.031 7.5497 238.619 7.55921C236.685 7.60353 234.565 7.58969 232.68 7.41468C232.216 7.37042 232.507 7.10862 232.406 7.03089C231.788 6.56055 230.912 7.24394 230.767 7.25696C227.317 7.58537 224.676 6.96691 221.159 7.26136C220.968 7.27865 219.494 8.01126 218.837 7.38294C218.792 7.34114 218.141 6.69831 217.566 7.13782C217.531 7.16532 217.936 7.49626 217.229 7.46253C216.521 7.42887 215.383 7.64987 214.411 7.28626C214.103 7.17172 213.376 6.53047 212.457 7.04163C212.398 7.07732 210.98 8.23312 210.474 7.43568C210.392 7.30441 210.478 6.46053 209.382 6.8932C209.173 6.97708 209.553 7.16531 209.001 7.28284C208.156 7.46399 207.037 7.23797 205.998 7.6139C205.816 7.68045 205.045 8.25322 204.427 7.81849C204.33 7.7504 204.514 7.46867 204.187 7.43714C202.633 7.2859 201.007 7.47435 199.429 7.27943C198.871 7.21093 199.156 6.75548 198.574 6.63343C197.991 6.51142 196.818 6.39405 196.208 6.60218C195.599 6.8104 196.265 7.53628 195.351 7.59437C191.381 7.84664 187.448 7.42082 183.484 7.35853C182.896 7.34922 183.383 7.60897 182.517 7.6139C179.322 7.63322 173.806 7.87676 171.034 7.32484C168.813 6.88278 171.608 6.54623 169.911 6.36634C169.092 6.28053 168.206 7.12444 168.008 7.15101C166.077 7.42089 164.735 7.04705 162.996 7.16175C162.637 7.18555 162.989 7.5276 162.684 7.54407C161.64 7.60339 160.543 7.45072 159.546 7.47864C159.099 7.49196 159.181 7.7532 158.769 7.73304C157.784 7.6878 156.913 7.57799 155.953 7.33314C155.866 7.31082 156.456 6.98585 155.727 6.97376C154.548 6.95512 153.084 6.71358 151.727 6.96302C151.324 7.03806 151.308 7.63512 150.443 7.22279C150.261 7.13667 150.493 6.41972 149.485 7.03919C149.315 7.14213 147.621 7.97768 146.79 7.43909C146.571 7.29734 146.011 6.71067 145.527 6.80286C145.462 6.81758 145.725 7.13828 145.323 7.16956C143.909 7.27423 142.427 7.24001 140.975 7.34046C140.587 7.36792 141.165 7.69978 140.586 7.73011C138.996 7.81399 137.011 7.72949 135.457 7.62562C134.883 7.58669 135.28 7.31178 135.238 7.28187C134.567 6.79527 134.171 7.45207 133.948 7.49036C132.564 7.71968 131.509 7.41116 130.233 7.4928C129.881 7.5145 130.131 7.82767 130.061 7.8556C129.334 8.12844 129.875 7.56603 129.415 7.50403C128.126 7.3285 126.688 7.35367 125.385 7.39368C124.906 7.40884 125.444 7.77197 125.014 7.78138C122.471 7.84395 119.826 7.8092 117.343 7.60901C116.876 7.57066 117.17 7.29104 117.073 7.22718C116.401 6.78036 115.417 7.38983 115.191 7.44788C114.161 7.71297 113.761 7.46569 112.852 7.51185C108.41 7.74164 102.926 7.57787 98.7334 7.47669C93.2699 7.34648 89.0304 7.08047 83.8204 7.14954C83.4892 7.15358 83.8231 7.52556 83.5377 7.53382C79.8523 7.62349 76.2241 7.47814 72.5314 7.58558C72.2284 7.59373 72.6652 7.94637 72.1788 7.97132C71.1812 8.02496 69.9175 8.00579 68.9088 7.89319C68.4168 7.83894 69.0767 7.53635 68.5815 7.48792C67.4284 7.37447 66.1924 7.34936 65.008 7.40589C64.5039 7.43072 65.2644 7.79138 64.6092 7.79554C60.1465 7.83132 55.7636 7.89343 51.2539 7.4264C50.9447 7.39432 50.6734 6.66132 50.0161 6.80189C49.9665 7.00532 49.9692 7.24461 49.9476 7.46204C43.451 7.57917 37.0207 7.32506 30.5059 7.28577C30.2312 7.2842 30.7059 7.67258 30.1741 7.67151C27.0963 7.66577 24.1074 7.77337 20.9591 7.38734C20.6467 7.34958 20.807 6.66633 19.8864 6.76966C19.7241 6.78852 18.3376 6.87964 17.9792 7.02796C17.9305 7.05033 18.1834 7.36925 17.7367 7.37855C15.1404 7.42698 12.4197 7.35417 9.82787 7.15931C9.40958 7.12725 9.85503 6.78763 9.55711 6.76185C7.44376 6.58156 5.14503 6.83974 3.12563 6.53138C1.77391 6.32376 2.27435 5.73669 1.55607 5.15883C1.45447 5.0773 0.617448 5.06438 0.574163 4.72816C0.463037 3.88272 0.868465 2.95697 0.702108 2.05581C0.666961 1.86171 -0.454033 2.07077 0.209668 1.60171C0.256034 1.57032 1.06876 1.41464 1.26893 1.25552C1.4083 1.14551 1.15716 0.803576 1.44151 0.662748C1.72584 0.522051 2.03829 0.808676 2.50971 0.643216C2.98091 0.475709 2.77372 0.0867252 3.71477 0.0406792ZM261.484 5.44447C260.74 5.11782 260.63 6.3142 261.435 6.02796C261.474 6.01271 261.523 5.4605 261.484 5.44447ZM351.509 5.25551C350.536 4.72782 349.87 5.50373 350.556 5.91127C351.242 6.31836 351.805 5.41547 351.509 5.25551ZM361.595 4.87025C360.459 4.4542 360.28 6.15071 361.497 5.80775C361.568 5.78837 361.662 4.89441 361.595 4.87025ZM4.88711 4.99428C4.87683 4.97839 4.27515 4.96291 4.26077 4.97865C3.94038 5.35862 5.14351 5.38932 4.88711 4.99428ZM371.605 4.45082C371.25 4.22133 370.228 4.48625 370.669 4.77162C371.024 5.00119 372.047 4.73629 371.605 4.45082ZM222.671 4.16762C222.659 4.14979 222.228 4.13374 222.236 4.23451C222.266 4.55909 222.866 4.46749 222.671 4.16762ZM388.617 4.43129C386.104 4.36743 384.58 2.96603 387.317 3.12417C387.812 3.15278 386.249 3.57106 386.879 3.69741C388.034 3.92758 388.8 3.04768 389.978 3.51918C390.192 3.60549 388.76 4.43805 388.613 4.43324C388.614 4.43259 388.616 4.43194 388.617 4.43129ZM261.056 4.00746C261.041 3.99164 260.444 3.97664 260.429 3.99233C260.106 4.37214 261.309 4.40258 261.056 4.00746ZM197.5 3.42788C197.467 3.39416 196.081 3.36264 196.036 3.3937C195.313 4.0148 198.115 4.08038 197.5 3.42788ZM301.272 3.13198C301.924 2.74988 302.703 2.70489 303.223 3.18471C302.575 3.15924 301.923 3.15549 301.272 3.13198Z" fill="#311D13"/>
</svg>
